<?xml version="1.0" ?><!DOCTYPE svg  PUBLIC '-//W3C//DTD SVG 1.1//EN'  'http://www.w3.org/Graphics/SVG/1.1/DTD/svg11.dtd'><svg enable-background="new 0 0 600 600" height="600px" id="Calque_1" version="1.1" viewBox="0 0 600 600" width="600px" xml:space="preserve" xmlns="http://www.w3.org/2000/svg" xmlns:xlink="http://www.w3.org/1999/xlink"><g><path d="M202.384,236.378c0.898,3.321-1.065,6.739-4.384,7.637l-53.906,14.573c-3.322,0.897-6.739-1.065-7.636-4.387l-5.292-19.574   c-0.899-3.321,1.065-6.74,4.385-7.637l53.906-14.574c3.319-0.897,6.738,1.066,7.637,4.386L202.384,236.378z"/><path d="M416.346,198.196H256.855h-1.618c-4.061,0.135-14.698,1.38-19.068,10.476c-4.847,10.083-14.144,31.426-14.144,31.426   s-1.833,4.189-9.427,6.285c-0.624,0.173-1.716,0.471-3.183,0.869c0.375-1.022,0.463-2.171,0.179-3.313   c-0.714-2.863-3.479-4.568-6.178-3.81l-65.198,18.325c-2.697,0.758-4.307,3.695-3.59,6.558c0.201,0.807,0.57,1.518,1.049,2.111   c-4.124,1.11-6.623,1.781-6.623,1.781s-4.277,1.31-4.277,9.428v281.271c0,17.934,14.538,32.474,32.474,32.474h259.096   c17.933,0,32.473-14.54,32.473-32.474V230.671C448.82,212.735,434.28,198.196,416.346,198.196z M255.37,228.225   c0-5.786,4.689-10.475,10.476-10.475h140.721c5.784,0,10.478,4.689,10.478,10.475v15.016c0,5.785-4.689,10.477-10.478,10.477   H265.846c-5.786,0-10.476-4.691-10.476-10.477V228.225L255.37,228.225z M418.824,570.406   c-13.218-12.772-26.436-25.543-39.652-38.313c-0.973,0.167-1.967,0.272-2.985,0.272H203.692c-1.019,0-2.012-0.104-2.982-0.271   c-13.221,12.768-26.436,25.536-39.651,38.31c-7.287,7.038-18.411-4.062-11.112-11.113c12.64-12.21,25.274-24.42,37.912-36.627   c-1.251-2.436-1.973-5.188-1.973-8.107V336.473c0-2.162,0.407-4.229,1.117-6.147c-12.585-12.161-25.172-24.323-37.759-36.482   c-7.299-7.053,3.824-18.151,11.112-11.111c12.677,12.249,25.353,24.495,38.03,36.743c1.677-0.523,3.459-0.809,5.307-0.809H376.19   c1.45,0,2.852,0.193,4.201,0.521c12.579-12.152,25.154-24.305,37.734-36.457c7.285-7.04,18.409,4.059,11.109,11.111   c-12.248,11.83-24.492,23.665-36.739,35.497c0.961,2.188,1.503,4.599,1.503,7.136v178.087c0,2.919-0.721,5.67-1.971,8.104   c12.636,12.211,25.273,24.421,37.911,36.628C437.236,566.346,426.113,577.444,418.824,570.406z"/><path d="M378.84,334.801c-0.629-0.365-1.214-0.81-1.739-1.318c-0.29-0.088-0.591-0.149-0.912-0.149H203.692   c-1.731,0-3.142,1.41-3.142,3.142V514.56c0,1.732,1.409,3.143,3.142,3.143h172.496c1.734,0,3.142-1.409,3.142-3.143V336.473   C379.33,335.857,379.147,335.288,378.84,334.801z"/></g><g><path d="M300.702,115.65c0,0,8.91-1.759,29.17,8.366c20.259,10.127,25.344,12.724,27.889,17.187   c2.544,4.462,5.427,7.824,9.273,4.776c2.461-1.954,1.001-6.157-1.182-10.591c-2.176-4.431-7.338-12.322-13.191-15.767   c-5.856-3.443-50.873-25.462-50.873-25.462L300.702,115.65z"/><path d="M392.073,91.73c-12.01-4.013-47.8-16.96-51.484-18.458c-6.216-2.522-2.099-6.936-11.657-10.49   c-9.565-3.553-29.841-9.79-29.841-9.79l-6.421,6.959c-11.652-5.347-89.319-41.443-99.247-46.265   c-12.44-6.042-20.41-5.463-27.213-2.456c-6.801,3.008-21.786,16.527-21.786,16.527l15.284,12.685c0,0,3.056-3.127,5.954-6.09   c2.894-2.963,8.879-6.451,19.011-2.984c8.321,2.846,83.827,39.376,93.453,44.346l-7.495,8.123l15.787,13.981   c0,0-11.64,12.22-18.701,19.524c-6.735,6.972-11.115,24.366,3.914,32.653c24.512,13.517,46.603,23.201,53.28,26.008   c5.56,2.334,8.824,2.829,14.198,3.011c5.376,0.182,22.964,0.958,29.558,1.129c6.599,0.168,11.471-0.62,16.559-4.097   c5.089-3.477,26.884-19.351,33.415-24.556c6.533-5.202,10.607-11.84,6.35-21.071c-4.254-9.229-11.214-23.544-12.354-26.265   C409.968,97.814,404.082,95.745,392.073,91.73z M403.328,125.909c2.143,5.591-1.128,7.826-4.641,10.185   c-3.517,2.36-21.667,16.606-26.027,19.464c-4.361,2.859-8.641,2.786-8.641,2.786s-16.73-0.665-20.519-0.865   c-3.784-0.202-4.389,0.781-9.539-1.234c-3.813-1.493-45.415-21.458-45.415-21.458s34.723-38.364,37.615-41.45   c2.898-3.085,5.18-6.042,8.492-4.859c3.313,1.184,48.301,17.518,53.938,19.53c5.64,2.01,7.483,2.843,8.854,5.636   C398.825,116.438,401.19,120.317,403.328,125.909z"/></g><path d="M166.658,162.173c-1.702-0.115-3.431-0.115-5.109-0.381c-13.386-2.092-22.646-9.524-27.907-21.912  c-3.21-7.578-3.226-15.49-1.742-23.459c1.429-7.664,4.045-14.949,7.356-21.964c3.896-8.246,8.032-16.371,12.036-24.574  c2.307-4.72,4.508-9.496,5.969-14.572c0.046-0.159,0.112-0.304,0.207-0.527c1.174,1.855,2.154,3.719,3.431,5.355  c5.028,6.434,10.111,12.826,15.259,19.172c5.815,7.16,11.58,14.345,16.228,22.358c2.926,5.051,5.325,10.338,6.719,16.02  c4.538,18.528-5.353,36.785-22.667,42.684c-1.285,0.443-2.608,0.762-3.917,1.139C170.567,161.734,168.611,161.952,166.658,162.173z   M143.393,102.169c-0.042,0.061-0.118,0.129-0.156,0.226c-0.539,1.402-1.105,2.796-1.602,4.222  c-2.425,7.015-4.314,14.125-3.699,21.673c0.799,9.885,5.283,17.583,13.653,22.933c3.038,1.939,6.379,3.143,10.116,3.73  c-0.199-0.188-0.252-0.274-0.333-0.315c-3.096-1.626-5.634-3.932-7.782-6.648c-7.813-9.908-10.87-21.338-10.681-33.771  C142.98,110.192,143.227,106.182,143.393,102.169z"/></svg>