<?xml version="1.0" ?><svg viewBox="0 0 100 100" xmlns="http://www.w3.org/2000/svg"><path d="M91.72035,56.78906a4.23366,4.23366,0,0,0-1.13672.15234,5.56834,5.56834,0,0,0-3.092-2.68915A38.13655,38.13655,0,0,0,50.0768,19.76263V5.52637h-.709V19.76611A37.80661,37.80661,0,0,0,29.81068,25.403a2.9558,2.9558,0,0,0-4.67334.59406,2.34152,2.34152,0,0,0-.47656-.04883,2.28836,2.28836,0,0,0-1.11353,4.29224,37.91758,37.91758,0,0,0-9.10352,41.39819,3.137,3.137,0,0,0,.43091,6.23633l2.72229-.01428A37.9319,37.9319,0,0,0,86.88246,65.28223h4.83789a4.24658,4.24658,0,1,0,0-8.49316ZM53.60609,29.30762v2.18945H45.79652V29.30762Zm2.20313,6.74121a1.68529,1.68529,0,0,0,1.25,1.27832l11.47363,2.68848H30.936l11.40833-2.68848a1.69662,1.69662,0,0,0,.65918-2.9668l-2.666-2.1543H59.06508l-2.666,2.1543A1.685,1.685,0,0,0,55.80922,36.04883ZM33.71644,57.376c-2.46777,0-5.4248-1.93555-5.6875-4.40625h43.3457c-.2627,2.4707-3.21973,4.40625-5.6875,4.40625Zm20.403.709a154.0601,154.0601,0,0,1-2.30334,16.00092V58.085ZM48.39857,77.166c-.04468-.13892-.08838-.28772-.13232-.434V75.0459h2.84082V76.831c-.03418.11169-.06763.22772-.10229.335Zm2.36035.709a6.55364,6.55364,0,0,1-.91162,1.78809.16827.16827,0,0,1-.291,0,6.55049,6.55049,0,0,1-.91187-1.78809Zm-2.49268-3.53809V72.21582h2.84082v2.12109Zm0-2.83008v-2.1123h2.84082v2.1123Zm0-2.82129V66.56445h2.84082v2.12109Zm0-2.83008V63.73535h2.84082v2.12012Zm0-2.8291V60.90527h2.84082v2.12109Zm0-2.83008V58.085h2.84082v2.11133Zm-.709-2.11133V73.94788A155.27363,155.27363,0,0,1,45.28334,58.085ZM30.78969,52.26074V49.4209h4.10742v2.83984Zm4.81641,0V49.4209h4.10742v2.83984Zm4.81641,0V49.4209h4.1084v2.83984Zm4.81738,0V49.4209H49.3473v2.83984Zm4.81641,0V49.4209h4.10742v2.83984Zm4.81641,0V49.4209h4.10742v2.83984Zm4.81641,0V49.4209h4.1084v2.83984Zm4.81738,0V49.4209H68.6139v2.83984ZM30.49476,48.71191l-6.38684-2.18945H75.29567l-6.38684,2.18945Zm-6.38721-2.89844L30.49476,43.623H68.90883L75.296,45.81348ZM68.777,42.91406H30.6266l-1.42969-2.18945H70.20668ZM23.07289,28.24414a1.59151,1.59151,0,0,1,2.127-1.49414l.31055.11328.13477-.30273a2.25116,2.25116,0,0,1,4.24707.39551l.0957.40527.38379-.1582a1.32893,1.32893,0,0,1,.502-.09863,1.36377,1.36377,0,1,1,0,2.72754H24.66078A1.58916,1.58916,0,0,1,23.07289,28.24414ZM14.87953,77.166a2.43533,2.43533,0,0,1,.04883-4.87012l.05078.001a2.46973,2.46973,0,0,1,.82715.16113l.30664.11523.13965-.29687a3.35186,3.35186,0,0,1,3.13574-1.94727,3.19257,3.19257,0,0,1,3.24707,2.44434l.08594.40332.38574-.14551a2.08015,2.08015,0,0,1,.791-.13672,2.11252,2.11252,0,0,1-.0498,4.22461h-.0459Zm25.3877,16.54163A37.01654,37.01654,0,0,1,18.44557,77.85626l5.351-.02814c.02051,0,.041.001.06055.001a2.82207,2.82207,0,0,0,.05566-5.64355,2.93337,2.93337,0,0,0-.68262.06934A3.913,3.913,0,0,0,19.402,69.62012c-.02734-.001-.05566-.001-.084-.001a4.09891,4.09891,0,0,0-3.56348,2.07813,3.156,3.156,0,0,0-.55969-.08038A37.23881,37.23881,0,0,1,24.29091,30.5036a2.273,2.273,0,0,0,.36987.03741h6.21289a2.07275,2.07275,0,1,0,0-4.14551,2.02416,2.02416,0,0,0-.40039.03906,2.9417,2.9417,0,0,0-.22681-.46613A37.103,37.103,0,0,1,49.36781,20.4751v8.12354H45.08754v2.89844H38.33168l4.22656,3.41406a.98852.98852,0,0,1-.38379,1.72852l-14.193,3.376h-.09509l2.01343,3.08093L20.88832,46.168l9.19238,3.15137v2.94141H27.3014v.35449c0,3.08008,3.44824,5.46973,6.415,5.46973h1.21521l5.066,23.8291a12.37859,12.37859,0,0,1,.26953,2.56543Zm2.8291.60553c-.71338-.1272-1.41943-.27728-2.12012-.44482V84.47949a13.04271,13.04271,0,0,0-.28516-2.71191L35.6559,58.085h2.10547l5.043,23.793a13.50844,13.50844,0,0,1,.292,2.79395ZM38.48585,58.085h3.23669a113.32841,113.32841,0,0,0,2.48218,16.33789l1.71313,7.14063H43.462ZM45.9264,94.70123q-1.06842-.10748-2.12109-.2746V82.27246H45.9264Zm6.81348-13.13776V94.78156c-.99878.08124-2.0061.12762-3.02246.12762-1.03638,0-2.062-.05719-3.082-.14026V81.59625l.01855-.00446L45.109,75.15137l.0127.00684-.18945-.75a111.39067,111.39067,0,0,1-2.499-16.32324H44.57c.19092,2.06854,1.24561,12.82788,2.9873,18.71265v.07153h.02112a10.14349,10.14349,0,0,0,1.42908,3.24316.9066.9066,0,0,0,.70313.32031.897.897,0,0,0,.68555-.32031C53.00062,76.9209,54.5934,60.67676,54.83265,58.085h2.13672a111.52641,111.52641,0,0,1-2.498,16.32617l-1.71484,7.15234ZM55.569,94.43817q-1.05194.16763-2.12012.277V82.27246H55.569Zm.36975-12.87469h-2.453l1.6731-6.98145A112.54423,112.54423,0,0,0,57.682,58.085H60.8893L56.01723,81.06543C55.98243,81.22968,55.9695,81.39832,55.93873,81.56348Zm2.46033,3.60059v8.71c-.701.16858-1.40662.32428-2.12109.45233V85.35254a20.04451,20.04451,0,0,1,.43262-4.14062L61.6139,58.085H63.7184L58.82582,81.09863A19.63066,19.63066,0,0,0,58.39906,85.16406Zm.709,8.535v-8.535a18.9598,18.9598,0,0,1,.41113-3.91895L64.44276,58.085h1.24438c2.9668,0,6.415-2.38965,6.415-5.46973v-.35449h-2.7793V49.31946L78.51527,46.168l-9.00134-3.08679,2.0033-3.06555h-.02979l-14.2583-3.376a.98831.98831,0,0,1-.38477-1.72852l4.22656-3.41406H54.31508V28.59863H50.0768v-8.127a37.42268,37.42268,0,0,1,36.679,33.5744,5.50372,5.50372,0,0,0-6.45532,3.785,3.711,3.711,0,0,0-1.03418-.14551,3.79834,3.79834,0,1,0,0,7.59668h6.89111A37.26937,37.26937,0,0,1,59.108,93.6991Zm32.6123-29.12585H79.26625a3.08936,3.08936,0,1,1,0-6.17871,2.99153,2.99153,0,0,1,1.1416.22363l.38477.15723.09473-.4043a4.82384,4.82384,0,0,1,5.937-3.58441s.46448.13361.726.24475a4.86187,4.86187,0,0,1,2.52258,2.48419l.13477.30273.31055-.11328a3.53911,3.53911,0,1,1,1.20215,6.86816Z"/></svg>