<?xml version="1.0" ?><!DOCTYPE svg  PUBLIC '-//W3C//DTD SVG 1.1//EN'  'http://www.w3.org/Graphics/SVG/1.1/DTD/svg11.dtd'><svg height="43.3492mm" style="shape-rendering:geometricPrecision; text-rendering:geometricPrecision; image-rendering:optimizeQuality; fill-rule:evenodd; clip-rule:evenodd" version="1.1" viewBox="0 0 4335 4335" width="43.3492mm" xml:space="preserve" xmlns="http://www.w3.org/2000/svg" xmlns:xlink="http://www.w3.org/1999/xlink"><defs><style type="text/css">
   <![CDATA[
    .fil0 {fill:#373435}
   ]]>
  </style></defs><g id="Слой_x0020_1"><path class="fil0" d="M1880 1535l124 0 0 -1518 163 0 0 1518 127 0 61 0c0,0 87,0 204,187 117,187 117,187 117,187 0,0 74,84 20,191 -54,107 -348,578 -348,578 0,0 -70,120 -130,120l-43 0c40,229 162,282 327,394 203,138 467,317 341,724 -126,407 -539,401 -539,401 0,0 36,0 -341,0 -377,0 -515,-371 -407,-533 108,-162 186,-287 275,-281 90,6 48,120 48,120 0,0 24,-72 -54,138 -78,209 132,215 305,215 174,0 347,0 347,-257 0,-257 -192,-419 -335,-467 -144,-48 -156,-269 -156,-269l0 -185 -31 0c-60,0 -130,-120 -130,-120 0,0 -294,-471 -348,-578 -54,-107 20,-191 20,-191 0,0 0,0 117,-187 117,-187 204,-187 204,-187l61 0zm207 304c62,0 112,50 112,112 0,62 -50,112 -112,112 -62,0 -112,-50 -112,-112 0,-62 50,-112 112,-112zm0 -75c104,0 188,84 188,188 0,104 -84,188 -188,188 -104,0 -188,-84 -188,-188 0,-104 84,-188 188,-188zm0 -48c130,0 236,106 236,236 0,130 -106,236 -236,236 -130,0 -236,-106 -236,-236 0,-130 106,-236 236,-236z"/></g></svg>