<?xml version="1.0" ?><!DOCTYPE svg  PUBLIC '-//W3C//DTD SVG 1.1//EN'  'http://www.w3.org/Graphics/SVG/1.1/DTD/svg11.dtd'><svg enable-background="new 0 0 450.887 414.627" height="414.627px" id="Layer_1" version="1.1" viewBox="0 0 450.887 414.627" width="450.887px" xml:space="preserve" xmlns="http://www.w3.org/2000/svg" xmlns:xlink="http://www.w3.org/1999/xlink"><g><path d="M440.086,34.295c-10.391-6.086-23.797-2.578-29.875,7.824l-0.063,0.102l-37.938,71.801   c-0.422,0.52-0.914,3.238,0.977,4.348c0.195,0.113,0.453,0.266,0.781,0.453c-1.898,3.59-3.109,5.891-3.289,6.242   c-1.859,3.602-5.008,4.391-7.914,3.355c-1.469-0.523-10.016-3.691-18.516-6.848c-2.203-1.309-3.5-3.73-2.711-7.125   c0.086-0.387,0.648-2.922,1.531-6.887c0.367,0.066,0.664,0.117,0.883,0.156c2.164,0.379,3.547-2.012,3.563-2.68l17.57-79.281   l0.016-0.121c2.102-11.863-5.852-23.215-17.711-25.301c-11.859-2.09-23.211,5.852-25.297,17.715l-10.609,80.449   c-0.117,1.52,0.523,3.586,2.453,3.926c0.188,0.031,0.516,0.09,0.906,0.16l-11.461,86.957c-1.008,5.719,2.813,11.172,8.523,12.184   c5.719,1.004,11.172-2.816,12.188-8.527l1.109-5.02c0.203-1.879,0.07-3.633-1.398-6.016l-2.414-3.918   c-2.195-3.57-1.086-8.238,2.477-10.434l3.93-2.414c0.844-0.52,3.016-2.469,3.453-4.426c0.648-2.844,1.508-6.723,1.906-8.68   c0.656-3.305,2.938-4.969,6.695-3.563c1.289,0.48,5.617,2.059,10.719,3.914c3.031,1.453,3.5,3.98,1.992,6.691   c-0.969,1.746-2.813,5.262-4.172,7.844c-0.922,1.781-0.539,4.668-0.227,5.613l1.43,4.383c1.297,3.98-0.883,8.258-4.867,9.559   l-4.375,1.422c-2.664,0.863-3.898,2.113-4.961,3.676l-2.406,4.543c-2.922,5.012-1.234,11.453,3.766,14.391   c5.016,2.926,11.453,1.242,14.391-3.762l47.563-73.703c0.344,0.203,0.625,0.367,0.797,0.469c1.68,0.988,3.508-0.168,4.398-1.406   l44-68.18C453.985,53.787,450.477,40.385,440.086,34.295z"/><path d="M323.883,236.447v-12.738c0-2.176-1.781-3.969-3.961-3.969H273.93c-2.18,0-3.969,1.793-3.969,3.969v12.738h-94.406v-12.738   c0-2.176-1.781-3.969-3.961-3.969h-45.992c-2.18,0-3.969,1.793-3.969,3.969v12.738H86.727v178.18h272.07v-178.18H323.883z    M165.961,326.314h-45.75v-15.652h45.75V326.314z M325.313,326.314h-15.047v15.051h-15.648v-15.051h-15.055v-15.652h15.055v-15.047   h15.648v15.047h15.047V326.314z"/><path d="M10.797,34.295c10.391-6.086,23.797-2.578,29.883,7.824l0.063,0.102l37.938,71.801c0.422,0.52,0.914,3.238-0.984,4.348   c-0.188,0.113-0.453,0.266-0.773,0.453c1.891,3.59,3.102,5.891,3.289,6.242c1.859,3.602,5.008,4.391,7.906,3.355   c1.469-0.523,10.023-3.691,18.516-6.848c2.211-1.309,3.508-3.73,2.719-7.125c-0.094-0.387-0.656-2.922-1.539-6.887   c-0.367,0.066-0.664,0.117-0.883,0.156c-2.156,0.379-3.547-2.012-3.563-2.68L85.805,25.756l-0.023-0.121   C83.688,13.771,91.641,2.42,103.493,0.334c11.867-2.09,23.211,5.852,25.305,17.715l10.602,80.449   c0.117,1.52-0.523,3.586-2.445,3.926c-0.195,0.031-0.516,0.09-0.906,0.16l11.461,86.957c1,5.719-2.813,11.172-8.531,12.184   c-5.719,1.004-11.172-2.816-12.18-8.527l-1.117-5.02c-0.203-1.879-0.07-3.633,1.398-6.016l2.422-3.918   c2.188-3.57,1.078-8.238-2.484-10.434l-3.93-2.414c-0.844-0.52-3.008-2.469-3.453-4.426c-0.641-2.844-1.508-6.723-1.898-8.68   c-0.664-3.305-2.938-4.969-6.703-3.563c-1.289,0.48-5.617,2.059-10.719,3.914c-3.023,1.453-3.5,3.98-1.992,6.691   c0.969,1.746,2.82,5.262,4.172,7.844c0.93,1.781,0.539,4.668,0.234,5.613l-1.438,4.383c-1.289,3.98,0.883,8.258,4.867,9.559   l4.383,1.422c2.664,0.863,3.891,2.113,4.961,3.676l2.398,4.543c2.922,5.012,1.234,11.453-3.766,14.391   c-5.008,2.926-11.453,1.242-14.391-3.762L52.18,133.299c-0.336,0.203-0.617,0.367-0.789,0.469   c-1.688,0.988-3.516-0.168-4.406-1.406l-44-68.18C-3.093,53.787,0.407,40.385,10.797,34.295z"/></g></svg>