<?xml version="1.0" ?><svg id="Layer_1" style="enable-background:new 0 0 310 198.237;" version="1.1" viewBox="0 0 310 198.237" xml:space="preserve" xmlns="http://www.w3.org/2000/svg" xmlns:xlink="http://www.w3.org/1999/xlink"  viewBox="0 0 50 50"><g><path d="M164.693,3.333l-4.821-2.602l-18.989,35.183c2.202,0.332,4.185,0.641,5.746,0.89L164.693,3.333z"/><path d="M143.693,3.244l-5.251-1.562l-9.681,32.546c1.802,0.224,3.661,0.471,5.5,0.726L143.693,3.244z"/><path d="M200.946,52.592l0.733-5.638l1.596,0.208l1.638-4.371l0.93-0.155c0.421-0.07,4.79-0.795,10.298-1.618l-26.786-3.482   l-0.999,7.687l2.665,0.346l-0.187,1.437l3.297,1.404l-1.529,1.096l-2.133,0.308l-0.181,1.393c-0.191,1.472,0.844,2.818,2.32,3.01   l5.325,0.692C199.407,55.101,200.755,54.064,200.946,52.592z"/><path d="M238.361,38.507c1.816,0,4.552,0.224,7.674,0.566c-0.724-0.923-1.095-2.122-0.932-3.378   c0.322-2.481,2.595-4.23,5.073-3.908c2.482,0.323,4.229,2.594,3.907,5.075c-0.16,1.231-0.801,2.28-1.708,2.987   c2.368,0.314,4.759,0.653,7.006,0.984l1.214-9.342c0,0-0.961-0.464-2.691-1.198L252.309,6.32c0,0-17.405-5.272-22.888-5.985   c-5.486-0.713-23.659-0.066-23.659-0.066l-11.54,21.745c-1.863,0.267-2.91,0.469-2.91,0.469l-1.764,13.573l32.071,4.169   C228.105,39.321,234.896,38.507,238.361,38.507z M232.273,36.914c-0.336,1.065-1.472,1.656-2.537,1.321   c-1.065-0.336-1.656-1.472-1.321-2.537c0.336-1.065,1.472-1.656,2.537-1.321S232.609,35.849,232.273,36.914z M235.945,35.902   c-0.211,0.669-0.924,1.04-1.593,0.829s-1.04-0.924-0.829-1.593s0.924-1.04,1.593-0.829S236.156,35.233,235.945,35.902z    M200.14,34.417c-2.387-0.31-4.075-2.426-3.916-4.793c0.053,0.022,0.102,0.05,0.158,0.068c0.991,0.312,2.047-0.238,2.36-1.228   c0.259-0.823-0.081-1.684-0.769-2.134c0.917-0.701,2.099-1.055,3.335-0.894c1.792,0.233,3.19,1.491,3.712,3.104l-3.53,0.593   l-0.287,2.474l1.641,2.311C202.043,34.344,201.11,34.543,200.14,34.417z M203.28,31.274c0.25-0.793,1.095-1.233,1.888-0.983   c0.793,0.25,1.233,1.095,0.983,1.888c-0.25,0.793-1.095,1.233-1.888,0.983C203.47,32.912,203.03,32.067,203.28,31.274z    M211.673,25.143l-5.687-1.201l0.003-3.044c-3.087,0.036-5.162,0.105-5.162,0.105l8.222-15.468   c4.164-0.126,15.562-0.402,19.678,0.133c4.112,0.534,15.063,3.716,19.054,4.897l0.342,1.463l-1.203,0.077l-15.32,0.977l2.829,1.977   l13.056-0.538l1.209-0.05l0.759,3.251l-1.204,0.07l-10.223,0.594l2.347,1.786l8.366-0.282l1.211-0.041l1.815,7.776   c0,0-15.813-4.755-25.119-5.965c-1.611-0.209-3.441-0.365-5.36-0.481l0.892-0.523l-0.373-0.636l-1.802-3.071l9.878-5.043   l-0.909-1.781l-9.982,5.096l-3.934-6.706l-1.726,1.012l3.874,6.606l-3.328,1.699l-5.984,3.055l0.909,1.781l8.37-4.273l1.047-0.535   l1.19,2.029l0.719,1.226c-0.724-0.037-1.457-0.069-2.194-0.096l0.956,3.293L211.673,25.143z M239.493,27.915l0.192,1.128   l-19.589,3.965l-0.329-2.518L239.493,27.915z"/><path d="M182.458,60.958l-5.544,1.171l2.82,13.358c1.653-0.555,3.482-1.165,5.412-1.799L182.458,60.958z"/><path d="M195.293,68.466l-1.684-7.975l-5.544,1.171l2.189,10.367c1.392-0.446,2.8-0.892,4.203-1.33L195.293,68.466z"/><path d="M46.362,66.99c0.882-0.147,15.209-2.524,27.454-4.052l0.926-0.178l3.681-9.824l-37.144,7.128l1.688,8.794l1.694-0.325   l0.503-1.344L46.362,66.99z"/><path d="M79.131,51.046l4.943-13.194l-10.713,6.114l-1.273-2.643l20.706-9.969l0.619,1.168l-8.618,4.918l0.325-0.054   c0.582-0.097,8.712-1.446,16.974-2.576c0.662-1.541,2.051-2.737,3.82-3.077c2.015-0.387,3.963,0.452,5.129,1.977   c2.669-0.277,4.991-0.453,6.595-0.453c0.212,0,0.442,0.004,0.678,0.01l-1.081-5.632c0,0-1.222-0.161-3.385-0.339L99.032,3.024   c0,0-21.002,0.52-27.274,1.723c-1.376,0.264-3.398,0.821-5.715,1.529l1.694,3.663l-4.374,2.015l-2.619-3.977   c-7.293,2.428-14.963,5.266-14.963,5.266l-4.784,28.033c-1.947,0.967-3.022,1.569-3.022,1.569l2.98,15.527L79.131,51.046z    M54.286,48.153c-0.013-0.96,0.755-1.749,1.715-1.762c0.96-0.013,1.749,0.755,1.762,1.715c0.013,0.96-0.755,1.749-1.715,1.762   C55.088,49.881,54.299,49.113,54.286,48.153z M51.294,17.829c4.522-1.646,16.926-6.077,21.634-6.981   C77.633,9.946,90.798,9.47,95.604,9.32l0.905,1.481l-1.292,0.52l-16.452,6.62l3.819,1.144l14.127-5.319l1.308-0.492l2.01,3.292   l-1.296,0.513l-10.999,4.354l3.221,1.109l9.075-3.339l1.314-0.483l4.807,7.873c0,0-19.068,0.51-29.715,2.554   c-2.895,0.556-6.328,1.448-9.79,2.451l2.241,3.266l-7.614,3.525L54.6,39.13l-1.099-3.34c-3.373,1.157-5.624,1.985-5.624,1.985   L51.294,17.829z M50.008,42.462c2.05-0.393,4.039,0.48,5.197,2.061l-3.658,1.929l0.581,2.818l2.637,1.94   c-0.725,0.759-1.677,1.315-2.786,1.528c-2.731,0.524-5.349-1.185-6.031-3.84c0.066,0.005,0.13,0.018,0.198,0.017   c1.2-0.016,2.16-1.002,2.144-2.202c-0.013-0.996-0.699-1.818-1.617-2.062C47.425,43.55,48.594,42.733,50.008,42.462z"/><polygon points="69.124,15.836 62.852,22.177 58.248,18.127 56.927,19.629 61.443,23.602 55.616,29.493 57.038,30.899    62.947,24.925 65.504,27.174 66.825,25.672 64.356,23.5 70.546,17.243  "/><path d="M166,99.024l-22.125-0.389l0.541-2.545L166,95.495v-2.823l-24.837-0.241l3.818,10.405H147v5.437   c3,0.666,3.551,1.093,3.615,1.114l1.385,0.478v4.963l6.113-0.001c2.043,0,3.771-1.895,3.77-3.934l0.074-8.056H166V99.024z"/><path d="M117.64,34.89c-7.602,0.001-32.251,4.107-32.251,4.107l-8.846,23.612c3.023-0.353,5.83-0.634,8.17-0.795l6.091-16.225   c5.652-0.91,21.135-3.308,26.838-3.309c5.698-0.001,21.184,2.392,26.833,3.294l0.725,1.933l-22.328,4.366l4.205,2.192l19.333-3.332   l1.611,4.295l-15.453,2.932l3.515,2.017l12.992-2.139l3.853,10.274c0,0-22.391-3.675-35.287-3.673c-1.039,0-2.144,0.026-3.289,0.07   c8.286,1.208,15.268,2.364,15.875,2.465l1.199,0.199l1.634,4.358l3.198-0.848l0.461,1.503l-3.026,1.033l6.526,17.404l25.429-0.004   l-0.003-18.807c0,0-1.392-0.461-3.879-1.154l-11.876-31.674C149.889,38.986,125.237,34.889,117.64,34.89z"/><polygon points="275.121,97.923 276.828,101.001 286,100.745 286,97.922  "/><polygon points="284.332,108.836 286,108.836 286,104.274 283.398,104.357  "/><path d="M238.362,40.14c-7.602,0.001-32.251,4.107-32.251,4.107l-9.681,25.839c3.123-0.96,6.154-1.854,8.84-2.585l6.255-16.662   c5.652-0.91,21.135-3.308,26.838-3.309c5.698-0.001,21.184,2.392,26.833,3.294l0.725,1.933l-1.625,0.318l-5.447,1.065l-4.01,0.784   l0.135-1.041l2.664,0.346l0.372-2.86c-6.934-1.029-15.722-2.206-19.647-2.205c-2.471,0-6.879,0.472-11.473,1.069l17.424,2.265   l-0.598,4.602l-0.125,0.024l0.114,0.059l-0.124,0.953c-0.191,1.472,0.845,2.818,2.318,3.009l5.328,0.693   c1.474,0.192,2.822-0.845,3.013-2.316l0.175-1.346l1.226-0.211l9.85-1.697l1.638-0.282l1.611,4.295l-1.628,0.309l-13.824,2.623   l1.42,0.815l0.777-0.004l0.396,0.678l0.921,0.529l11.349-1.869l1.643-0.271l3.853,10.274c0,0-6.147-1.008-13.852-1.968   l6.767,11.574c0.979-2.152,3.142-3.652,5.659-3.652c3.44-0.001,6.223,2.785,6.224,6.222c0.001,3.437-2.782,6.223-6.222,6.224   c-0.181,0-0.358-0.012-0.535-0.027l2.419,4.138l12.262-0.002l-0.003-18.807c0,0-1.392-0.461-3.879-1.154l-11.876-31.674   C270.611,44.236,245.959,40.139,238.362,40.14z"/><path d="M225.962,60.461l8.362-5.738l-1.697-2.474l-8.507,5.837l-4.292-5.532l-2.37,1.839l4.185,5.393l-7.856,5.391l0.295,0.431   c1.458-0.179,3.182-0.337,5.076-0.478l4.326-2.969l2.007,2.586c0.28-0.014,0.561-0.027,0.843-0.041l1.824-1.415L225.962,60.461z"/><path d="M64.569,138.198l-38.167-0.045l0.002,13.683H31v2.767l6.197,1.713l-2.478,2.275L31,159.621v2.49   c0,2.63,2.212,4.758,4.849,4.758l9.557-0.002c2.634,0,4.786-2.228,4.786-4.858l0.019-10.173h5.755   C57.505,146.836,60.528,141.832,64.569,138.198z"/><path d="M103.746,137.836c0.548,1,1.073,1.008,1.582,1.539c0.509-0.532,1.035-0.539,1.583-1.539H103.746z"/><path d="M146.071,137.836c1.246,2,2.291,2.568,3.331,3.882l0.599,0.203v-4.085H146.071z"/><path d="M67.983,135.652c4.641-3.081,10.202-4.881,16.178-4.881c5.972,0,11.53,1.798,16.169,4.875l9.997-0.002   c4.639-3.076,10.196-4.874,16.167-4.874c5.967,0,11.521,1.795,16.158,4.868l7.549-0.001l-0.004-24.252c0,0-1.795-0.595-5.002-1.489   l-15.314-40.844c0,0-31.789-5.283-41.586-5.281c-9.803,0.002-41.587,5.296-41.587,5.296l-15.304,40.849   c-3.212,0.895-5.006,1.49-5.006,1.49l0.004,24.252L67.983,135.652z M36.639,122.82c0.106,0.03,0.208,0.071,0.319,0.09   c1.813,0.322,3.543-0.886,3.865-2.698c0.268-1.505-0.528-2.941-1.841-3.574c1.45-1.441,3.448-2.333,5.656-2.333   c3.203-0.001,5.963,1.883,7.249,4.601l-6.083,1.854l0.062,4.412l3.419,3.692c-1.312,0.935-2.912,1.49-4.644,1.49   C40.371,130.355,36.893,127.024,36.639,122.82z M54.691,125.048c-0.258,1.45-1.642,2.416-3.092,2.159   c-1.45-0.258-2.417-1.642-2.159-3.092c0.258-1.45,1.642-2.417,3.092-2.159C53.982,122.214,54.948,123.598,54.691,125.048z    M101.672,127.393c-0.346,1.948-2.207,3.247-4.155,2.901c-1.948-0.346-3.247-2.207-2.901-4.155   c0.346-1.948,2.207-3.247,4.155-2.901C100.72,123.584,102.019,125.444,101.672,127.393z M107.893,124.775   c-0.218,1.223-1.386,2.039-2.609,1.821s-2.039-1.386-1.821-2.609c0.218-1.223,1.386-2.039,2.609-1.821   C107.296,122.383,108.111,123.551,107.893,124.775z M79.384,123.316l-1.154-4.35l34.072-9.037l0.595,1.939L79.384,123.316z    M131.961,130.339c-4.428,0.001-8.022-3.59-8.022-8.023c-0.001-4.433,3.591-8.026,8.02-8.026c4.435-0.001,8.025,3.591,8.026,8.024   C139.984,126.746,136.396,130.339,131.961,130.339z M53.69,77.568c7.288-1.174,27.253-4.266,34.607-4.268   c7.347-0.001,27.317,3.085,34.601,4.247l0.935,2.493l-28.792,5.63l5.422,2.826l24.93-4.296l2.077,5.539l-19.926,3.781l4.532,2.601   l16.753-2.758l4.968,13.249c0,0-28.873-4.739-45.502-4.736c-4.522,0.001-9.951,0.354-15.457,0.865l2.433,5.568l-12.488,3.112   l-10.267-0.81l-0.691-5.349c-5.416,0.769-9.046,1.365-9.046,1.365L53.69,77.568z"/><polygon points="56.851,96.415 58.548,98.889 69.203,91.577 72.425,95.729 74.795,93.891 71.681,89.877 82.842,82.218    81.145,79.744 69.839,87.503 64.053,80.046 61.683,81.885 67.361,89.203  "/><path d="M286.659,134.504l-0.618-3.588l-122.005,21.002l2.33,13.536l4.693-0.808l0.436,2.53l6.315,0.652l-0.552,0.727l13.402-2.307   l-0.833-4.833l75.081-12.925l1.709,9.928c0.446,2.592,2.905,4.329,5.499,3.882l9.382-1.615c2.596-0.447,4.335-2.906,3.889-5.498   l-1.709-9.928l4.692-0.808l-0.94-5.462l-27.98,4.302l0.019-3.333L286.659,134.504z"/><path d="M159.474,125.413l4.114,23.901l122.005-21.002l-4.114-23.901c0,0-1.87-0.282-5.182-0.619l-22.014-37.657   c0,0-32.224,0.181-41.879,1.843c-9.661,1.663-40.088,12.267-40.088,12.267l-8.16,42.852   C161.142,124.522,159.474,125.413,159.474,125.413z M186.988,136.714c-1.473-0.008-2.66-1.209-2.651-2.682   c0.008-1.473,1.209-2.66,2.682-2.651c1.473,0.008,2.66,1.209,2.651,2.682C189.661,135.535,188.461,136.722,186.988,136.714z    M232.765,131.973c-1.979-0.011-3.574-1.625-3.563-3.604s1.625-3.574,3.604-3.563s3.574,1.625,3.563,3.604   S234.744,131.985,232.765,131.973z M239.794,127.013c-1.243-0.007-2.244-1.02-2.237-2.263c0.007-1.243,1.02-2.244,2.263-2.237   c1.243,0.007,2.244,1.02,2.237,2.263C242.049,126.019,241.036,127.02,239.794,127.013z M266.719,126.181   c-4.364,0.751-8.514-2.179-9.266-6.547c-0.752-4.368,2.179-8.518,6.543-9.27c4.371-0.752,8.517,2.179,9.269,6.547   C274.017,121.28,271.09,125.429,266.719,126.181z M264.508,102.486c0,0-14.73,0.114-29.141,1.187l-22.103,12.059l-1.874-4.091   l15.797-7.236c-2.977,0.32-5.804,0.692-8.326,1.126c-4.457,0.767-9.747,2.035-15.086,3.472l3.342,5.075l-11.78,5.183l-10.255,0.942   l-1.588-5.154c-5.207,1.676-8.684,2.879-8.684,2.879l2.009-10.514l18.664-11.371l6.695,6.121l2.024-2.214l-6.051-5.532   l29.846-18.184c7.903-0.352,16.548-0.491,20.843-0.543l1.344,2.298l-27.421,10.428l5.823,1.866l23.841-8.459l2.986,5.107   l-18.997,7.103l4.907,1.796l16.043-5.558L264.508,102.486z M214.02,77.368c1.846-0.318,4.537-0.577,7.641-0.788l-25.815,15.728   l-4.576-4.184l-2.024,2.214l3.933,3.595l-15.599,9.504l3.057-15.999C187.62,85.047,206.772,78.615,214.02,77.368z"/><rect height="6" width="18" y="145.836"/><rect height="6" width="16" x="294" y="145.836"/><path d="M45.995,176.604l13,1.5l1.191-1.131c-2.54-3.599-4.295-7.788-5.004-12.322L45.995,176.604z"/><polygon points="35.152,175.716 27.794,171.76 19.481,175.143 16.851,181.159 23.863,183.117 33.182,180.728  "/><polygon points="13.492,156.602 12.17,159.625 15.694,160.61 21.96,160.771 21.369,156.89 17.671,154.901  "/><polygon points="215.745,166.854 263.639,177.499 267.495,172.604 220.018,161.376  "/><polygon points="252.823,162.061 250.361,165.979 282.815,169.81 285.041,166.307 271.025,164.46 269.829,164.303  "/><path d="M149.21,178.639c-0.083,0.102-0.169,0.202-0.253,0.303l0.208,3.706l72.885-4.095l-0.224-3.994l-29.452,1.655l-20.733,1.165   L149.21,178.639z"/><path d="M151.823,152.021l-5.703,2.708l-1.625-2.625l5.326-4.756c-4.515-8.24-13.268-13.828-23.326-13.828   c-7.634,0-14.512,3.223-19.36,8.377c2.864,3.607,4.9,7.897,5.814,12.586c2.206-5.31,7.438-9.046,13.547-9.046   c8.1,0,14.667,6.566,14.667,14.667c0,8.1-6.567,14.667-14.667,14.667c-6.108,0-11.341-3.736-13.547-9.046   c-0.914,4.689-2.949,8.98-5.814,12.586c4.848,5.154,11.726,8.377,19.36,8.377c14.682,0,26.583-11.902,26.583-26.583   C153.078,157.285,152.636,154.571,151.823,152.021z"/><path d="M110.745,160.104c0-14.682-11.902-26.583-26.583-26.583c-14.682,0-26.583,11.902-26.583,26.583   c0,5.76,1.838,11.088,4.952,15.442l5.465-2.608l3.833,1.833l-3.215,6.889c4.373,3.16,9.741,5.027,15.548,5.027   C98.843,186.687,110.745,174.785,110.745,160.104z M84.162,174.771c-8.1,0-14.667-6.566-14.667-14.667   c0-8.1,6.566-14.667,14.667-14.667c8.1,0,14.667,6.566,14.667,14.667C98.828,168.204,92.262,174.771,84.162,174.771z"/><circle cx="83.495" cy="160.021" r="8"/><rect height="5" transform="matrix(0.3024 -0.9532 0.9532 0.3024 -102.7329 243.496)" width="4.333" x="112.829" y="177.937"/><rect height="2" width="26" x="158" y="44.836"/><rect height="3" width="26" x="161" y="49.836"/><polygon points="246.829,180.604 237.162,178.271 231.162,180.437 229.829,185.937 241.162,184.271  "/><polygon points="149.495,188.604 143.495,190.771 142.162,196.271 153.495,194.604 159.162,190.937  "/><circle cx="126.12" cy="159.479" r="6.625"/></g></svg>