<?xml version="1.0" ?><!DOCTYPE svg  PUBLIC '-//W3C//DTD SVG 1.1//EN'  'http://www.w3.org/Graphics/SVG/1.1/DTD/svg11.dtd'><svg height="43.3492mm" style="shape-rendering:geometricPrecision; text-rendering:geometricPrecision; image-rendering:optimizeQuality; fill-rule:evenodd; clip-rule:evenodd" version="1.1" viewBox="0 0 4335 4335" width="43.3492mm" xml:space="preserve" xmlns="http://www.w3.org/2000/svg" xmlns:xlink="http://www.w3.org/1999/xlink"><defs><style type="text/css">
   <![CDATA[
    .fil0 {fill:black}
   ]]>
  </style></defs><g id="Layer_x0020_1"><path class="fil0" d="M1589 1270c-38,-53 -82,-92 -128,-110 -23,-73 -35,-151 -35,-232 0,-427 346,-773 773,-773 427,0 773,346 773,773 0,76 -11,150 -32,220 -65,6 -134,30 -199,71 -155,100 -226,268 -165,383 -39,22 -80,40 -123,55 -63,-84 -166,-140 -283,-140 -109,0 -206,48 -270,123 -54,-22 -105,-51 -152,-84 47,-52 68,-110 53,-163 -21,-73 -105,-118 -214,-124zm610 -1211c480,0 869,389 869,869 0,78 -10,154 -30,226 55,12 100,41 129,85 66,102 18,254 -107,360l26 9 480 682c0,0 62,69 38,120 9,1 18,6 24,15l44 68 135 -87c13,-9 32,-5 40,9l34 52c9,14 5,32 -9,40l-135 87 43 66 135 -87c13,-9 32,-5 40,9l34 52c9,13 5,32 -9,40l-135 87 38 59c13,20 7,47 -13,60l-77 50c-20,13 -47,7 -60,-13l-50 -78 -41 -64 -67 -103 -41 -64 -56 -87c-6,-9 -7,-19 -4,-28 -56,2 -94,-84 -94,-84l-427 -717 2 -28c-113,54 -233,57 -312,9 -46,27 -94,51 -145,70 12,34 19,70 19,108 0,165 -126,303 -290,329l0 1327c40,18 66,53 66,93 0,40 -27,75 -66,93l0 70 45 0c12,0 22,10 22,22l0 39 214 0 0 -42c0,-12 10,-22 22,-22l69 0c12,0 22,10 22,22l0 69c0,12 -10,22 -22,22l-60 0 0 97 60 0c12,0 22,10 22,22l0 69c0,12 -10,22 -22,22l-69 0c-12,0 -22,-10 -22,-22l0 -37 -214 0 0 45c0,12 -10,22 -22,22l-45 0 0 177c0,12 -10,22 -22,22l-74 0c-12,0 -22,-10 -22,-22l0 -568c-45,-17 -76,-54 -76,-97 0,-43 31,-81 76,-97l0 -1323c-163,-27 -287,-164 -287,-328 0,-45 9,-88 26,-127 -59,-26 -114,-58 -165,-95 -10,101 -54,179 -123,199 -1,0 -2,1 -3,1 -1,0 -2,0 -3,1 -1,0 -2,0 -3,1 -1,0 -2,0 -3,1 -1,0 -2,0 -3,0 -1,0 -2,0 -3,0 -1,0 -2,0 -3,0 -1,0 -2,0 -3,0 -1,0 -2,0 -3,0 -1,0 -2,0 -3,0 -1,0 -2,0 -3,0 -1,0 -2,0 -3,0 -1,0 -2,0 -3,0 -1,0 -2,0 -3,0 -1,0 -2,0 -3,0 -1,0 -2,0 -3,0 -1,0 -2,0 -3,0 -1,0 -2,0 -3,0 -1,0 -2,0 -3,0 -1,0 -2,0 -3,0 -1,0 -2,0 -3,-1 -1,0 -2,0 -3,-1 -1,0 -2,0 -3,-1 -1,0 -2,0 -3,-1 -1,0 -2,0 -3,-1 -1,0 -2,-1 -3,-1l0 0c-1,0 -2,-1 -3,-1 -1,0 -2,-1 -3,-1 -1,0 -2,-1 -3,-1 -1,0 -2,-1 -3,-1l0 0c-1,0 -2,-1 -3,-1 -1,0 -2,-1 -3,-1l0 0c-1,0 -2,-1 -3,-1 -1,0 -2,-1 -3,-1 -1,0 -2,-1 -3,-1l0 0c-1,0 -2,-1 -3,-1l0 0c-1,0 -2,-1 -3,-1 -1,0 -2,-1 -3,-1l0 0c-1,-1 -2,-1 -3,-2 -1,-1 -2,-1 -3,-2 -1,-1 -2,-1 -3,-2l0 0c-1,-1 -2,-1 -3,-2l0 0c-1,-1 -2,-1 -3,-2l0 0c-1,-1 -2,-1 -3,-2l0 0c-1,-1 -2,-1 -3,-2 -1,-1 -2,-1 -3,-2l0 0c-1,-1 -2,-1 -3,-2l0 0c-1,-1 -2,-1 -3,-2l0 0c-1,-1 -2,-1 -3,-2 -1,-1 -2,-1 -3,-2l0 0c-1,-1 -2,-1 -3,-2l0 0c-1,-1 -2,-1 -3,-2l0 0c-1,-1 -2,-2 -3,-2l0 0c-1,-1 -2,-2 -3,-2l0 0c-1,-1 -2,-2 -3,-2l0 0 -3 -2 0 0c-1,-1 -2,-2 -3,-2l0 0c-1,-1 -2,-2 -3,-3l0 0 -3 -3 0 0c-1,-1 -2,-2 -3,-3l0 0c-1,-1 -2,-2 -3,-3l0 0 -3 -3 0 0c-1,-1 -2,-2 -3,-3l0 0 -3 -3 -373 671 66 36c19,10 27,32 23,51l-24 43 -24 -13c-29,-16 -66,-6 -83,24l0 0c-16,29 -6,66 24,83l24 13 -36 64 -58 -32c-29,-16 -66,-6 -83,24l0 0c-16,29 -6,66 24,83l58 32 -28 51 -1 0c0,1 0,1 -1,2l-16 29 -39 -22c-29,-16 -66,-6 -83,24l0 0c-16,29 -6,66 24,83l39 22 -40 71c-59,22 -142,67 -203,56 -6,-1 -13,-3 -19,-5l-1 1c-1,-1 -2,-2 -3,-2 -1,0 -2,-1 -3,-1l1 -1c-5,-5 -10,-9 -14,-14 -42,-46 -47,-140 -60,-202l40 -71 39 22c29,16 66,6 83,-24l0 0c16,-29 6,-66 -24,-83l-39 -22 16 -29c1,-1 1,-1 2,-2l0 -1 28 -51 58 32c29,16 66,6 83,-24l0 0c16,-29 6,-66 -24,-83l-58 -32 36 -64 24 13c29,16 66,6 83,-24l0 0c16,-29 6,-66 -24,-83l-24 -13 24 -43c14,-14 37,-18 56,-7l66 36 373 -671 -4 -1 0 0c-1,0 -2,-1 -4,-1l0 0 -4 -1 0 0c-1,0 -2,-1 -4,-1l0 0c-1,0 -2,-1 -4,-1l0 0 -4 -1 0 0c-1,0 -2,-1 -4,-1l0 0c-1,0 -2,-1 -4,-1l0 0 -4 -1 0 0c-1,0 -2,-1 -3,-1l0 0c-1,0 -2,-1 -3,-1l0 0c-1,0 -2,-1 -3,-1l0 0c-1,0 -2,-1 -3,-1l0 0c-1,0 -2,-1 -3,-1l0 0c-1,0 -2,-1 -3,-1 -1,0 -2,-1 -3,-1l0 0c-1,0 -2,-1 -3,-1l0 0c-1,0 -2,-1 -3,-1l0 0c-1,0 -2,-1 -3,-1 -1,0 -2,-1 -3,-1l0 0c-1,0 -2,-1 -3,-1l0 0c-1,0 -2,-1 -3,-2l0 0c-1,-1 -2,-1 -3,-2l0 0c-1,-1 -2,-1 -3,-2 -1,-1 -2,-1 -3,-2 -1,-1 -2,-1 -3,-2l0 0c-1,-1 -2,-1 -3,-2 -1,-1 -2,-1 -3,-2l0 0c-1,-1 -2,-1 -3,-2l0 0c-1,-1 -2,-1 -3,-2 -1,-1 -2,-1 -3,-2 -1,-1 -2,-1 -3,-2l0 0c-1,-1 -2,-1 -3,-2 -1,-1 -2,-1 -2,-2l0 0c-1,-1 -2,-1 -2,-2 -1,-1 -2,-1 -2,-2 -1,-1 -2,-1 -2,-2 -1,-1 -2,-1 -2,-2l0 0c-1,-1 -2,-1 -2,-2 -1,-1 -1,-1 -2,-2 -1,-1 -1,-1 -2,-2 -1,-1 -1,-1 -2,-2 -1,-1 -1,-1 -2,-2 -1,-1 -1,-1 -2,-2 -1,-1 -1,-1 -2,-2 -1,-1 -1,-2 -2,-2 -1,-1 -1,-2 -2,-2 -1,-1 -1,-2 -2,-2 -1,-1 -1,-2 -2,-2 -1,-1 -1,-2 -2,-2 -1,-1 -1,-2 -2,-2 -1,-1 -1,-2 -2,-2 -1,-1 -1,-2 -1,-2 0,-1 -1,-2 -1,-3 0,-1 -1,-2 -1,-3 0,-1 -1,-2 -1,-3 0,-1 -1,-2 -1,-3 0,-1 -1,-2 -1,-3 0,-1 -1,-2 -1,-3 0,-1 -1,-2 -1,-3 0,-1 -1,-2 -1,-3 0,-1 -1,-2 -1,-3 0,-1 -1,-2 -1,-3 0,-1 -1,-2 -1,-3 -21,-73 28,-156 117,-219 6,-104 47,-186 114,-211 -20,-73 -30,-150 -30,-229 0,-480 389,-869 869,-869zm800 1210c-53,124 -134,233 -234,319 30,3 65,-5 95,-25 28,-18 48,-43 59,-69 28,1 59,-8 87,-26 62,-40 86,-112 55,-160 -14,-21 -36,-34 -61,-39zm-652 516c-48,8 -98,13 -148,13 -9,0 -18,0 -27,0l-1 2 -1 -2c-57,-2 -113,-9 -166,-22 -20,19 -32,46 -32,76 0,59 48,107 107,107 40,0 75,-22 93,-54 18,32 53,54 93,54 59,0 107,-48 107,-107 0,-25 -9,-49 -24,-67zm-734 -215c-91,-83 -165,-186 -214,-301 -46,16 -74,71 -78,141 -59,42 -91,96 -77,145 13,47 67,77 137,82l0 -1 3 0 1 1 1 0 2 3 0 1c41,57 95,87 142,73 48,-14 78,-70 82,-142l2 -1zm1260 -263c-48,86 -113,162 -189,223 -17,-47 8,-108 63,-143 28,-18 59,-27 87,-26 8,-19 22,-38 40,-54zm-1194 192c-50,-45 -94,-97 -130,-154l3 0 0 -1c70,5 124,35 137,82 7,23 3,48 -10,73z"/></g></svg>