<?xml version="1.0" ?><svg style="enable-background:new 0 0 48 48;" version="1.1" viewBox="0 0 48 48" xml:space="preserve" xmlns="http://www.w3.org/2000/svg" xmlns:xlink="http://www.w3.org/1999/xlink"><g id="Padding__x26__Artboard"/><g id="Icons"><g><g><path d="M33.146,13.73749h-0.59961v0.49689c0,0.43457,0.59473,0.57764,1.23828,0.66748     c0.58203,0.08154,1.3623,0.12646,2.19727,0.12646c3.43555,0,3.43555-0.57666,3.43555-0.79395v-0.49689h-0.59961H33.146z" style="fill:#303030;"/><g><path d="M34.63184,10.39417c-0.98413,0.18829-1.77521,0.60504-1.99823,1.26904h0.66528h5.36438h0.66632      c-0.2301-0.68604-1.06396-1.1109-2.09131-1.29034V8.02002c0-0.58301-0.54785-1.00635-1.30322-1.00635      s-1.30322,0.42334-1.30322,1.00635v0.34961h-1.31494v0.59961v0.52881v0.59961h1.31494V10.39417z" style="fill:#303030;"/><path d="M39.68475,12.09265H39.3949h-0.55444h-5.71704h-0.55444h-0.28918      c-0.12866,0.15637-0.21143,0.36353-0.21143,0.61389c0,0.24182,0.0766,0.44525,0.1969,0.60156h0.28113H33.146h5.67188h0.59961      h0.28174c0.12048-0.15625,0.19727-0.35968,0.19727-0.60156C39.89648,12.45612,39.8136,12.2489,39.68475,12.09265z" style="fill:#303030;"/></g></g><g><path d="M16.99023,13.90186c-0.13574-0.03271-0.27393,0.03125-0.33691,0.1543     c-0.32416,0.63055-0.77814,0.86041-1.15234,0.84833v0.61279v2.89313v0.61761c0.57996,0.14343,0.91119,0.26831,1.14844,0.76495     c0.05029,0.10596,0.15674,0.17041,0.27051,0.17041c0.02197,0,0.04395-0.00244,0.06641-0.00732     c0.13672-0.03076,0.2334-0.15234,0.2334-0.29248v-5.47021C17.21973,14.05469,17.125,13.93457,16.99023,13.90186z" style="fill:#303030;"/><path d="M11.23785,13.78394c-0.01099-0.00287-0.01599-0.00488-0.02631-0.00891     c-0.03961,1.21527,0.1377,3.55328,1.96033,4.46619c0.68341,0.34265,1.24963,0.51562,1.72949,0.63794v-0.62219v-2.88861v-0.79297     c-0.13031-0.1748-0.20312-0.42029-0.24536-0.69421l-0.01813,0.01221C14.63788,13.89337,12.62646,14.14673,11.23785,13.78394z" style="fill:#303030;"/><path d="M32.62842,8.00342L32.02148,8.0083c-0.06494-0.01221-0.13379-0.05273-0.21387-0.1001     c-0.2251-0.1333-0.56641-0.33496-1.12305-0.02393c-0.18176,0.10156-0.31836,0.15845-0.43115,0.1991V7.74756     c0-0.16553-0.13428-0.2998-0.2998-0.2998s-0.2998,0.13428-0.2998,0.2998V8.0661c-0.04852-0.02911-0.09845-0.06635-0.146-0.11639     c-0.27783-0.29395-0.60547-0.44922-0.94775-0.44922H20.5249c-0.3418,0-0.66943,0.15527-0.94824,0.44922     c-0.04742,0.04999-0.09717,0.08722-0.14551,0.11633V7.9292c0-0.16553-0.13428-0.2998-0.2998-0.2998     s-0.2998,0.13428-0.2998,0.2998v0.15405c-0.11298-0.04065-0.24896-0.09711-0.43115-0.19897     c-0.55615-0.31104-0.89746-0.10889-1.12354,0.02441c-0.08008,0.04688-0.14893,0.0874-0.15723,0.09473h-0.66309     c-0.16553,0-0.2998,0.13428-0.2998,0.2998v0.06641v0.2998v0.2998v0.52881v0.2998v0.2998v0.06689     c0,0.16553,0.13428,0.2998,0.2998,0.2998l0.60742-0.00488c0.06445,0.01221,0.1333,0.05273,0.21338,0.09961     c0.22461,0.13281,0.56494,0.33496,1.12305,0.02393c0.18268-0.10199,0.31873-0.15851,0.43115-0.1991v3.25183     c0,0.94238,0.76611,1.7085,1.70801,1.7085s1.70801-0.76611,1.70801-1.7085v-1.09473h1.10107v0.78613     c0,0.16553,0.13428,0.2998,0.2998,0.2998l0.02441,0.11768c-0.09131,0.05127-0.17041,0.12646-0.23145,0.22266     c-0.09033,0.1416-0.13965,0.3252-0.13965,0.51709c0,0.34033,0.14502,0.61377,0.37109,0.74121l-0.44434,0.02881     c-0.16553,0-0.2998,0.13428-0.2998,0.2998v1.05322c0,0.146,0.104,0.26758,0.24268,0.29443l-0.01379,1.57153     c0.64026-0.09631,1.91449-0.09052,2.69629,0.02228l0.02112-1.59235c0.14209-0.02344,0.25049-0.14697,0.25049-0.2959V15.5542     c0-0.16553-0.13428-0.2998-0.2998-0.2998h-0.44434v-0.02979c0.09131-0.05127,0.17041-0.12646,0.23145-0.22266     c0.09033-0.1416,0.13965-0.3252,0.13965-0.51758c0-0.33984-0.14502-0.61328-0.37109-0.74072v-0.1167h0.02441     c0.16553,0,0.2998-0.13428,0.2998-0.2998v-0.78613h1.13135v0.91309c0,0.94189,0.76611,1.70801,1.7085,1.70801     c0.94189,0,1.70801-0.76611,1.70801-1.70801v-3.06976c0.11292,0.04059,0.24884,0.09692,0.43115,0.19867     c0.55566,0.31104,0.896,0.10938,1.12305-0.02393c0.07959-0.04688,0.14844-0.0874,0.15771-0.09473h0.66309     c0.16553,0,0.2998-0.13428,0.2998-0.2998v-0.06689v-0.2998v-0.2998V8.96924v-0.2998v-0.2998V8.30322     C32.92822,8.1377,32.79395,8.00342,32.62842,8.00342z M21.06543,8.58105h2.27051c0.16553,0,0.2998,0.13428,0.2998,0.2998     s-0.13428,0.2998-0.2998,0.2998h-2.27051c-0.16553,0-0.2998-0.13428-0.2998-0.2998S20.8999,8.58105,21.06543,8.58105z      M23.96198,11.50006c-0.01184,0.0061-0.02319,0.01282-0.03467,0.01971c-0.08331,0.04987-0.15765,0.10968-0.21906,0.17755     c-0.0014,0.00153-0.00323,0.00299-0.00464,0.00452c-0.10944,0.12213-0.1803,0.23956-0.1803,0.23956h-1.57556h-0.00116h-0.00031     h-1.10645v0.59961v1.06641c0,0.16553-0.13428,0.2998-0.2998,0.2998s-0.2998-0.13428-0.2998-0.2998v-1.36621     c0-0.86804,0.79065-0.7843,0.79065-0.7843h3.00714C24.01062,11.46582,23.98792,11.48663,23.96198,11.50006z M24.32764,8.88086     c0-0.16553,0.13428-0.2998,0.2998-0.2998h0.46973c0.16553,0,0.2998,0.13428,0.2998,0.2998s-0.13428,0.2998-0.2998,0.2998     h-0.46973C24.46191,9.18066,24.32764,9.04639,24.32764,8.88086z M28.84326,13.60742c0,0.16553-0.13428,0.2998-0.2998,0.2998     s-0.2998-0.13428-0.2998-0.2998v-1.06641v-0.59961h-1.10693h-1.60571c0,0-0.06464-0.10541-0.16626-0.22101     c-0.01416-0.01617-0.03314-0.03137-0.04883-0.04767c-0.05518-0.05756-0.11719-0.10669-0.1864-0.15112     c-0.01367-0.00879-0.02753-0.01593-0.04163-0.02362c-0.03064-0.01685-0.05865-0.04102-0.09088-0.05157l3.0556,0.0105     c0,0,0.79065-0.08374,0.79065,0.7843V13.60742z" style="fill:#303030;"/></g><g><circle cx="24.52722" cy="31.63855" r="1.62671" style="fill:#303030;"/><g><path d="M26.42383,34.00195c-0.0415-0.11719-0.00684-0.24854,0.08789-0.3291      c0.0957-0.08057,0.23047-0.09521,0.33887-0.03516l1.27917,0.70093c0.56793-0.75562,0.91711-1.68402,0.91711-2.69995      c0-2.49219-2.02734-4.52002-4.51953-4.52002s-4.52002,2.02783-4.52002,4.52002s2.02783,4.51953,4.52002,4.51953      c0.8891,0,1.71332-0.26685,2.41315-0.71198L26.42383,34.00195z M27.80841,31.17358c0.23822,0,0.43134,0.19312,0.43134,0.4314      c0,0.23822-0.19312,0.43134-0.43134,0.43134c-0.23828,0-0.4314-0.19312-0.4314-0.43134      C27.37701,31.3667,27.57013,31.17358,27.80841,31.17358z M26.51862,28.98956c0.16852-0.16846,0.44159-0.16846,0.61005,0      c0.16852,0.16846,0.16852,0.44159,0,0.61005c-0.16846,0.16846-0.44153,0.16846-0.61005,0      C26.35016,29.43115,26.35016,29.15802,26.51862,28.98956z M24.49365,27.92584c0.23828,0,0.4314,0.19312,0.4314,0.43134      c0,0.23828-0.19312,0.4314-0.4314,0.4314c-0.23822,0-0.43134-0.19312-0.43134-0.4314      C24.06232,28.11896,24.25543,27.92584,24.49365,27.92584z M21.24591,32.10327c-0.23822,0-0.4314-0.19312-0.4314-0.43134      c0-0.23828,0.19318-0.4314,0.4314-0.4314s0.4314,0.19312,0.4314,0.4314C21.67731,31.91016,21.48413,32.10327,21.24591,32.10327z       M21.8783,29.03693c0.16846-0.16846,0.44153-0.16846,0.61005,0c0.16846,0.16846,0.16846,0.44159,0,0.61005      c-0.16852,0.16846-0.44159,0.16846-0.61005,0C21.70978,29.47852,21.70978,29.20538,21.8783,29.03693z M22.53564,34.28735      c-0.16846,0.16846-0.44159,0.16846-0.61005,0c-0.16846-0.16852-0.16846-0.44159,0-0.61005      c0.16846-0.16852,0.44159-0.16852,0.61005,0C22.7041,33.84576,22.7041,34.11884,22.53564,34.28735z M24.56061,35.35107      c-0.23822,0-0.43134-0.19318-0.43134-0.4314s0.19312-0.43134,0.43134-0.43134c0.23828,0,0.4314,0.19312,0.4314,0.43134      S24.79889,35.35107,24.56061,35.35107z M24.52734,33.86475c-1.22803,0-2.22656-0.99854-2.22656-2.22607      c0-1.22803,0.99854-2.22656,2.22656-2.22656c1.22754,0,2.22607,0.99854,2.22607,2.22656      C26.75342,32.86621,25.75488,33.86475,24.52734,33.86475z" style="fill:#303030;"/><path d="M37.19775,27.85254l-1.59668,0.00244l-1.27197,0.17334      c-0.14844,0.02051-0.25928,0.14746-0.25928,0.29736v0.21973h-0.35107v-2.60162c0.53479-0.08167,0.95264-0.52472,0.95264-1.08197      c0-0.61475-0.5-1.11475-1.11475-1.11475h-1.28387c0.05127-1.20477-0.03424-2.02277-0.13068-2.53174      c-0.08105-0.42578-0.45557-0.73438-0.89062-0.73438h-1.29785c-0.00812,0-0.01288,0.008-0.02081,0.00861      c-0.40662,0.00958-0.63,0.55731-0.72919,0.90448c-0.20422,0.71472-0.24579,1.75116-0.25336,2.2627h-0.25262      c-0.18439-0.3136-0.41412-0.53967-0.62195-0.68262c-0.13928-0.09589-0.2525-0.21948-0.34705-0.35577      c-0.03949,0.12451-0.09564,0.23645-0.15875,0.3291c-0.0022,0.00317-0.00391,0.00494-0.00604,0.00812      c-0.04297,0.07684-0.10059,0.14728-0.16858,0.21271c-0.61462,0.59131-2.30121,0.65546-2.90161,0.65546      c-0.77051,0-1.49219-0.07861-2.03223-0.2207c-0.37988-0.09967-0.65967-0.2312-0.8454-0.39117      c-0.07788-0.06708-0.13287-0.14105-0.17712-0.21814c-0.01007-0.01654-0.01947-0.03833-0.02942-0.05701      c-0.04126-0.07715-0.07483-0.1748-0.10394-0.29181c-0.09137,0.12506-0.19739,0.23975-0.32751,0.32922      c-0.20685,0.14264-0.43591,0.36847-0.62036,0.68652h-2.44897c-0.09619,0-0.18652,0.0459-0.24268,0.12354l-0.89331,1.23254      c-4.46265-0.09961-8.06958-3.76367-8.06958-8.24524v-4.68311c0-1.30603,0.98914-2.3739,2.25537-2.52435v0.23383      c0,0.16553,0.13428,0.2998,0.2998,0.2998h0.58789v0.19824c-0.24609,0.20166-0.72314,0.70166-0.88184,1.63867      c-0.35889,0.04395-0.97363,0.15967-1.27588,0.4502c-0.05859,0.05664-0.0918,0.13477-0.0918,0.21631      c0,0.44629,0.63086,0.59424,1.31299,0.68799c0.10132,0.01385,0.21637,0.02509,0.32819,0.03687      c0,0,1.49982,0.22144,3.37708,0.06158c2.3197-0.12854,2.32697-0.59369,2.32697-0.78644c0-0.08154-0.0332-0.15967-0.0918-0.21631      c-0.30225-0.29102-0.91943-0.40674-1.27783-0.45068c-0.18213-0.96484-0.80811-1.46729-1.11963-1.66211v-0.17432h1.31543V9.49805      V8.96924V8.36963h-1.31543V8.02002c0-0.58301-0.54785-1.00635-1.30322-1.00635s-1.30322,0.42334-1.30322,1.00635v0.24512      H11.2583c-0.16553,0-0.2998,0.13428-0.2998,0.2998v0.39948c-1.59747,0.15356-2.85498,1.48737-2.85498,3.12396v4.68311      c0,4.75964,3.79388,8.6568,8.5166,8.83661v1.4632c0,0.16553,0.13428,0.2998,0.2998,0.2998h1.59375v4.49365      c0,0.58057-0.27539,1.12549-0.73584,1.45703c-1.61816,1.16553-4.32812,3.67188-4.29297,7.36621      c0.00146,0.16455,0.13525,0.29688,0.2998,0.29688h2.46143c0.0874,0,0.16992-0.0376,0.22705-0.10352      c0.05713-0.06641,0.08252-0.15381,0.06982-0.24023c-0.00079-0.00513-0.01819-0.15472-0.01691-0.38916h16.00055      c0.00232,0.23608-0.01422,0.38684-0.01489,0.39209c-0.01221,0.08594,0.01367,0.17334,0.07031,0.23877      c0.05713,0.06592,0.13965,0.10352,0.22656,0.10352h2.45996c0.16455,0,0.29883-0.13281,0.2998-0.29736      c0.03125-3.70703-2.67773-6.20654-4.29395-7.36572c-0.46045-0.33252-0.73584-0.87744-0.73584-1.45703v-4.5h1.6001      c0.16553,0,0.2998-0.13428,0.2998-0.2998v-1.08984h0.68066v2.86865c0,0.16553,0.13428,0.2998,0.2998,0.2998h0.65088v0.42773      c0,0.16064,0.12598,0.29248,0.28613,0.2998l1.28564,0.05762h1.55615c0.57275,0,1.03857-0.46582,1.03857-1.03906      C38.23633,28.31836,37.77051,27.85254,37.19775,27.85254z M15.93604,39.95215l0.00012-0.00031      c0.00018,0.00073,0.00049,0.00134,0.00049,0.00177C15.93665,39.95306,15.93604,39.9527,15.93604,39.95215z M31.38611,37.33112      c0.16125,0.17834,0.30487,0.35889,0.42395,0.54248c-1.1958,0.20074-2.21472,0.28705-3.06982,0.28705      c-2.55603,0-3.70795-0.72937-4.1839-1.19458c-0.4762,0.46521-1.62842,1.19458-4.18378,1.19458      c-0.86871,0-1.90344-0.08801-3.12378-0.29553c0.12085-0.18329,0.26654-0.36346,0.43036-0.54132      c3.91357,0.60944,5.60669-0.12726,6.26288-0.62512c-1.39478-0.16144-2.61115-0.87451-3.43414-1.92767      c-0.12305-0.15747-0.23846-0.31793-0.34271-0.48938c-0.47089-0.77405-0.75745-1.67255-0.75745-2.64294      c0-1.78204,0.91742-3.35034,2.30225-4.26758c0.39294-0.26031,0.8313-0.44861,1.28973-0.59326      c0.48553-0.1532,0.99207-0.25879,1.52765-0.25879c0.53564,0,1.04224,0.10565,1.52783,0.25891      c0.45825,0.14465,0.89648,0.33295,1.28925,0.59314c1.3847,0.91724,2.30206,2.48553,2.30206,4.26758      c0,0.97406-0.28809,1.87604-0.76227,2.65204c-0.10474,0.17145-0.22137,0.33148-0.34497,0.48895      c-0.81262,1.03534-2.00549,1.74097-3.37451,1.9137C25.81403,37.18927,27.49445,37.92902,31.38611,37.33112z" style="fill:#303030;"/></g><path d="M24.49365,23.22363c1.21704,0.03961,1.95782-0.18683,2.30518-0.35193     c0.01062-0.00397,0.25232-0.1189,0.49591-0.47229c0.1474-0.21381,0.1842-0.43439,0.18475-0.43652v-0.00031l0.00018-0.00037     l-0.00024-0.00006c-0.03918-0.35529-0.07739-0.51221-0.11029-0.64722c-0.03906-0.16162-0.06787-0.27881-0.08154-0.78076     c-0.02393-0.85156-0.61639-1.51874-1.42108-1.65839c-0.08862-0.01312-0.49603-0.04614-0.59924-0.04968     c-1.34521-0.04602-2.12177,0.02789-2.12177,0.02789c-0.80908,0.13623-1.42236,0.82275-1.44531,1.67383     c-0.0166,0.60449-0.02783,0.68555-0.05859,0.90234c-0.0166,0.11572-0.03809,0.26758-0.06787,0.54102     c0,0,0.05054,0.23206,0.21234,0.43671C22.07837,22.77759,22.79242,23.16827,24.49365,23.22363z" style="fill:#303030;"/></g></g></g></svg>