<?xml version="1.0" ?><!DOCTYPE svg  PUBLIC '-//W3C//DTD SVG 1.1//EN'  'http://www.w3.org/Graphics/SVG/1.1/DTD/svg11.dtd'><svg enable-background="new 0 0 100 100" height="100px" id="Layer_1" version="1.1" viewBox="0 0 100 100" width="100px" xml:space="preserve" xmlns="http://www.w3.org/2000/svg" xmlns:xlink="http://www.w3.org/1999/xlink"><g><polygon fill="#231F20" points="22.755,29.661 36.116,43.021 37.246,45.74 44.618,38.368 41.891,37.246 28.057,24.359    26.565,15.829 9.813,2.519 0,12.332 14.092,28.3  "/><polygon fill="#231F20" points="54.58,71.885 80.18,97.482 94.496,89.846 96.419,81.246 70.82,55.646  "/><path d="M78.566,46.699c11.705,0,21.195-9.486,21.195-21.195c0-1.826-0.262-3.594-0.693-5.287l-12.46,12.457   l-13.873-1.247l-1.244-13.873L84.025,5.046c-1.743-0.463-3.566-0.729-5.459-0.729c-11.701,0-21.192,9.483-21.192,21.187   c0,2.664,0.513,5.199,1.407,7.541L7.241,84.586l0.252,6.934l12.648,5.963l51.84-51.839C74.055,46.319,76.266,46.699,78.566,46.699z   " fill="#231F20"/></g></svg>