<?xml version="1.0" ?><!DOCTYPE svg  PUBLIC '-//W3C//DTD SVG 1.1//EN'  'http://www.w3.org/Graphics/SVG/1.1/DTD/svg11.dtd'><svg style="enable-background:new 0 0 48 48;" version="1.1" viewBox="0 0 48 48" xml:space="preserve" xmlns="http://www.w3.org/2000/svg" xmlns:xlink="http://www.w3.org/1999/xlink"><g id="Padding__x26__Artboard"/><g id="Icons"><g><g><polyline points="9.56098,36.94348 9.56098,15.13671 14.76298,15.13671 14.76298,24.45333    " style="fill:none;stroke:#303030;stroke-width:0.4;stroke-linecap:round;stroke-linejoin:round;stroke-miterlimit:10;"/><path d="M26.3113,12.17193h-6.75176c-0.33506,0-0.33506-0.66438,0-0.66438h6.75176     C26.53555,11.50755,26.53555,12.17193,26.3113,12.17193z" style="fill:none;stroke:#303030;stroke-width:0.4;stroke-linecap:round;stroke-linejoin:round;stroke-miterlimit:10;"/><path d="M19.83872,11.50755c0,0-0.22766-0.54101,0.77783-0.6169c1.00549-0.07589,1.29638-0.5312,1.29638-0.5312     h1.73273c0,0,0.66053,0.51596,1.24107,0.56647c0.7613,0.06624,0.97227,0.24363,0.99125,0.58163" style="fill:none;stroke:#303030;stroke-width:0.4;stroke-linecap:round;stroke-linejoin:round;stroke-miterlimit:10;"/><path d="M23.91566,10.33676h-2.31317c-0.20114,0-0.20114-0.49735,0-0.49735h2.31317     C24.11241,9.83941,24.11241,10.33676,23.91566,10.33676z" style="fill:none;stroke:#303030;stroke-width:0.4;stroke-linecap:round;stroke-linejoin:round;stroke-miterlimit:10;"/><polyline points="21.79458,9.83941 21.79458,9.31492 23.79236,9.31492 23.79236,9.83941    " style="fill:none;stroke:#303030;stroke-width:0.4;stroke-linecap:round;stroke-linejoin:round;stroke-miterlimit:10;"/><g><path d="M22.33594,9.26019l0.4801-2.9563l0.00052-0.0108c0.00082-0.01694,0.01519-0.03,0.03212-0.02921      c0.01495,0.00073,0.02737,0.01547,0.0294,0.02975l0.42581,2.97394c0.01568,0.10953-0.06039,0.211-0.16991,0.22668      s-0.21101-0.06039-0.22668-0.16989c-0.00108-0.00748-0.0017-0.01511-0.00194-0.02246l-0.08885-3.00296L22.878,6.2995      l-0.00173,0.01068l-0.1425,2.99167c-0.00526,0.1105-0.09912,0.19583-0.20963,0.19055      c-0.11051-0.00525-0.19583-0.09909-0.19057-0.20963C22.33393,9.27521,22.33476,9.26755,22.33594,9.26019z" style="fill:#303030;"/></g><polyline points="20.02382,12.17193 20.02382,12.81661 25.63173,12.81661 25.63173,12.17193    " style="fill:none;stroke:#303030;stroke-width:0.4;stroke-linecap:round;stroke-linejoin:round;stroke-miterlimit:10;"/><path d="M24.81775,12.8188c0,0-1.48,4.67-0.97,10.78c0.38,4.63,0.99,11.1,1.26,13.94" style="fill:none;stroke:#303030;stroke-width:0.4;stroke-linecap:round;stroke-linejoin:round;stroke-miterlimit:10;"/><path d="M20.51775,12.8188c0,0,1.58,3.97,1.28,7.92c-0.25,3.24-1.42203,13.23355-1.84203,16.73355" style="fill:none;stroke:#303030;stroke-width:0.4;stroke-linecap:round;stroke-linejoin:round;stroke-miterlimit:10;"/><polyline points="22.93775,37.5388 22.52775,23.0388 22.52775,23.0288 22.23775,12.8188    " style="fill:none;stroke:#303030;stroke-width:0.4;stroke-linecap:round;stroke-linejoin:round;stroke-miterlimit:10;"/><path d="M22.98205,12.81661c0,0-0.16721,3.63706,0.12258,4.64019l1.09393-4.64019" style="fill:none;stroke:#303030;stroke-width:0.4;stroke-linecap:round;stroke-linejoin:round;stroke-miterlimit:10;"/><path d="M21.30205,12.81661c0,0,1.0151,2.77516,1.07664,4.93977" style="fill:none;stroke:#303030;stroke-width:0.4;stroke-linecap:round;stroke-linejoin:round;stroke-miterlimit:10;"/><polyline points="20.79573,37.47235 22.52775,23.0388 22.52775,23.0288    " style="fill:none;stroke:#303030;stroke-width:0.4;stroke-linecap:round;stroke-linejoin:round;stroke-miterlimit:10;"/><line style="fill:none;stroke:#303030;stroke-width:0.4;stroke-linecap:round;stroke-linejoin:round;stroke-miterlimit:10;" x1="23.84775" x2="23.44775" y1="37.5388" y2="27.5688"/><line style="fill:none;stroke:#303030;stroke-width:0.4;stroke-linecap:round;stroke-linejoin:round;stroke-miterlimit:10;" x1="24.42775" x2="23.44775" y1="37.5388" y2="27.5688"/><line style="fill:none;stroke:#303030;stroke-width:0.4;stroke-linecap:round;stroke-linejoin:round;stroke-miterlimit:10;" x1="23.29716" x2="23.33552" y1="25.96164" y2="26.6114"/><line style="fill:none;stroke:#303030;stroke-width:0.4;stroke-linecap:round;stroke-linejoin:round;stroke-miterlimit:10;" x1="23.23639" x2="23.26465" y1="24.54747" y2="24.95325"/><rect height="4.16809" style="fill:none;stroke:#303030;stroke-width:0.4;stroke-linecap:round;stroke-linejoin:round;stroke-miterlimit:10;" width="11.157" x="16.91815" y="37.53572"/><polyline points="25.97259,37.5388 25.97259,34.34798 36.62429,34.34798 36.62429,38.33913 36.62429,40.72345      28.07516,40.72345    " style="fill:none;stroke:#303030;stroke-width:0.4;stroke-linecap:round;stroke-linejoin:round;stroke-miterlimit:10;"/><line style="fill:none;stroke:#303030;stroke-width:0.4;stroke-linecap:round;stroke-linejoin:round;stroke-miterlimit:10;" x1="16.91815" x2="8.36285" y1="40.58276" y2="40.58276"/><line style="fill:none;stroke:#303030;stroke-width:0.4;stroke-linecap:round;stroke-linejoin:round;stroke-miterlimit:10;" x1="6.30432" x2="7.30984" y1="40.58276" y2="40.58276"/><path d="M8.36285,40.58276c0.19353-0.41716,0.49885-0.93102,0.6781-1.35451     c0.07992-0.18881,0.15977-0.38491,0.15692-0.58992c-0.00201-0.14463-0.04532-0.28551-0.05869-0.42955     c-0.02725-0.29336,0.07018-0.58302,0.17775-0.8573c0.05843-0.149,0.12406-0.30209,0.24406-0.408     c0.11999-0.10592,0.30999-0.14975,0.44146-0.05847c0.23244,0.16138,0.12639,0.5889,0.36535,0.74043     c0.04761,0.03019,0.10454,0.04512,0.14802,0.08101c0.14826,0.12234,0.06142,0.40475,0.21671,0.51803     c0.14351,0.10469,0.34264-0.04155,0.42019-0.20136s0.11753-0.3556,0.26748-0.45083     c0.08249-0.05239,0.18509-0.06371,0.27061-0.11098c0.16409-0.0907,0.22963-0.28741,0.32192-0.45062     c0.09228-0.1632,0.27926-0.31869,0.45039-0.2421c0.17197,0.07697,0.18534,0.32252,0.32166,0.45258     c0.04891,0.04667,0.11274,0.0771,0.15551,0.12945c0.13496,0.16517,0.0399,0.5035,0.24656,0.55631     c0.07139,0.01824,0.14748-0.01543,0.21987-0.0017c0.15327,0.02907,0.18839,0.22575,0.248,0.3699     c0.1535,0.37117,0.71561,0.48473,1.00116,0.20226c0.22599,0.10147,0.00558,0.53725,0.21771,0.66518     c0.06076,0.03664,0.13913,0.03143,0.20189,0.06455c0.15362,0.08107,0.1167,0.30827,0.05759,0.4716     c0.15137,0.09151,0.36413-0.02768,0.51821,0.0592c0.08438,0.04758,0.12639,0.14393,0.16279,0.23369     c0.08019,0.19772,0.16037,0.39545,0.24056,0.59317" style="fill:none;stroke:#303030;stroke-width:0.4;stroke-linecap:round;stroke-linejoin:round;stroke-miterlimit:10;"/><path d="M14.76298,38.65662c0.19571-0.07831,0.55098-0.63796,0.56782-0.84809     c0.01685-0.21013,0.01969-0.44379,0.165-0.59651c0.07869-0.0827,0.19049-0.12981,0.26296-0.21801     c0.1358-0.16529,0.16544-0.48159,0.37918-0.4729c0.04753,0.00193,0.09521,0.02336,0.14123,0.01134     c0.13582-0.03545,0.07426-0.27079,0.18529-0.35667c0.09838-0.0761,0.24265,0.02318,0.36359-0.00589     c0.19579-0.04705,0.16971-0.34693,0.30686-0.49437c0.12533-0.13473,0.37024-0.09101,0.48121,0.05576     c0.11096,0.14678,0.10741,0.35501,0.04173,0.5269c0.15083,0.168,0.51968-0.01937,0.61661,0.18454     c0.0284,0.05975,0.01747,0.13564,0.05752,0.18831c0.07272,0.09565,0.22742,0.02886,0.3101-0.05832     c0.08269-0.08717,0.17647-0.20028,0.29444-0.1775c0.06773,0.01308,0.11767,0.06926,0.16026,0.12353     c0.21537,0.27442,0.15721,0.62233,0.26652,0.9536" style="fill:none;stroke:#303030;stroke-width:0.4;stroke-linecap:round;stroke-linejoin:round;stroke-miterlimit:10;"/><polyline points="10.90564,38.13105 10.90564,31.1771 20.70144,31.1771    " style="fill:none;stroke:#303030;stroke-width:0.4;stroke-linecap:round;stroke-linejoin:round;stroke-miterlimit:10;"/><line style="fill:none;stroke:#303030;stroke-width:0.4;stroke-linecap:round;stroke-linejoin:round;stroke-miterlimit:10;" x1="15.37603" x2="15.37603" y1="31.1771" y2="37.36687"/><line style="fill:none;stroke:#303030;stroke-width:0.4;stroke-linecap:round;stroke-linejoin:round;stroke-miterlimit:10;" x1="12.26818" x2="12.26818" y1="31.1771" y2="36.74848"/><line style="fill:none;stroke:#303030;stroke-width:0.4;stroke-linecap:round;stroke-linejoin:round;stroke-miterlimit:10;" x1="18.52823" x2="18.52823" y1="31.1771" y2="36.57272"/><polyline points="27.82507,34.27199 27.82507,24.54747 32.25799,27.5688 32.2683,31.45808 30.45849,32.26771      30.45849,34.34798    " style="fill:none;stroke:#303030;stroke-width:0.4;stroke-linecap:round;stroke-linejoin:round;stroke-miterlimit:10;"/><polyline points="32.25799,27.5688 34.17052,27.5688 34.17052,34.34798    " style="fill:none;stroke:#303030;stroke-width:0.4;stroke-linecap:round;stroke-linejoin:round;stroke-miterlimit:10;"/><polyline points="35.59301,34.27199 35.59301,19.2104 39.80015,19.2104 39.80015,27.80961 38.2976,29.29367      38.2976,37.32582    " style="fill:none;stroke:#303030;stroke-width:0.4;stroke-linecap:round;stroke-linejoin:round;stroke-miterlimit:10;"/><line style="fill:none;stroke:#303030;stroke-width:0.4;stroke-linecap:round;stroke-linejoin:round;stroke-miterlimit:10;" x1="36.62429" x2="41.69567" y1="37.36687" y2="37.36687"/><polyline points="36.62429,40.72345 41.69567,40.72345 41.69567,27.79028 39.80015,27.80961    " style="fill:none;stroke:#303030;stroke-width:0.4;stroke-linecap:round;stroke-linejoin:round;stroke-miterlimit:10;"/><polygon points="37.69658,16.8017 36.40548,18.21827 38.88448,18.21827    " style="fill:none;stroke:#303030;stroke-width:0.4;stroke-linecap:round;stroke-linejoin:round;stroke-miterlimit:10;"/><line style="fill:none;stroke:#303030;stroke-width:0.4;stroke-linecap:round;stroke-linejoin:round;stroke-miterlimit:10;" x1="36.65844" x2="36.65844" y1="18.21827" y2="19.15421"/><line style="fill:none;stroke:#303030;stroke-width:0.4;stroke-linecap:round;stroke-linejoin:round;stroke-miterlimit:10;" x1="38.64417" x2="38.64417" y1="18.21827" y2="19.15421"/><polyline points="36.62429,34.25687 36.62429,20.70488 38.88448,20.70488 38.88448,28.74098    " style="fill:none;stroke:#303030;stroke-width:0.4;stroke-linecap:round;stroke-linejoin:round;stroke-miterlimit:10;"/><polyline points="27.82507,27.93035 31.6018,27.93035 31.6018,28.73937 27.82507,28.73937    " style="fill:none;stroke:#303030;stroke-width:0.3;stroke-linecap:round;stroke-linejoin:round;stroke-miterlimit:10;"/><polyline points="32.25799,29.80538 28.78206,29.80538 28.78206,30.33552 32.25799,30.33552    " style="fill:none;stroke:#303030;stroke-width:0.3;stroke-linecap:round;stroke-linejoin:round;stroke-miterlimit:10;"/><polyline points="27.82507,31.26931 30.07181,31.26931 30.07181,32.01768 27.82507,32.01768    " style="fill:none;stroke:#303030;stroke-width:0.3;stroke-linecap:round;stroke-linejoin:round;stroke-miterlimit:10;"/><rect height="1.70086" style="fill:none;stroke:#303030;stroke-width:0.3;stroke-linecap:round;stroke-linejoin:round;stroke-miterlimit:10;" width="5.86109" x="18.31178" y="39.9007"/><rect height="0.50566" style="fill:none;stroke:#303030;stroke-width:0.3;stroke-linecap:round;stroke-linejoin:round;stroke-miterlimit:10;" width="11.157" x="16.91815" y="38.45267"/><rect height="2.74548" style="fill:none;stroke:#303030;stroke-width:0.3;stroke-linecap:round;stroke-linejoin:round;stroke-miterlimit:10;" width="0.63938" x="25.63063" y="38.95833"/><rect height="0.76366" style="fill:#303030;" width="0.96074" x="27.67108" y="35.15653"/><rect height="0.76366" style="fill:#303030;" width="0.96074" x="29.34728" y="35.15653"/><rect height="0.76366" style="fill:#303030;" width="0.96074" x="31.02348" y="35.15653"/><rect height="0.76366" style="fill:#303030;" width="0.96074" x="32.69968" y="35.15653"/><rect height="0.76366" style="fill:#303030;" width="0.96074" x="34.37588" y="35.15653"/><rect height="0.45027" style="fill:#303030;" width="10.6517" x="25.97259" y="36.57272"/><line style="fill:none;stroke:#303030;stroke-width:0.4;stroke-linecap:round;stroke-linejoin:round;stroke-miterlimit:10;" x1="31.89512" x2="31.89512" y1="36.79786" y2="40.66785"/><polyline points="13.63503,30.95839 13.63503,24.95325 16.91815,23.76305 16.91815,30.95839    " style="fill:none;stroke:#303030;stroke-width:0.4;stroke-linecap:round;stroke-linejoin:round;stroke-miterlimit:10;"/><polyline points="17.06315,26.81473 19.67132,26.81473 19.67132,30.95839    " style="fill:none;stroke:#303030;stroke-width:0.4;stroke-linecap:round;stroke-linejoin:round;stroke-miterlimit:10;"/></g><polyline points="10.17889,37.24197 10.17889,16.0238 14.14507,16.00763 14.14507,24.73419   " style="fill:none;stroke:#303030;stroke-width:0.3;stroke-linecap:round;stroke-linejoin:round;stroke-miterlimit:10;"/><line style="fill:none;stroke:#303030;stroke-width:0.3;stroke-linecap:round;stroke-linejoin:round;stroke-miterlimit:10;" x1="10.17889" x2="14.14507" y1="19.35751" y2="19.35751"/><line style="fill:none;stroke:#303030;stroke-width:0.3;stroke-linecap:round;stroke-linejoin:round;stroke-miterlimit:10;" x1="10.17889" x2="14.14507" y1="22.9486" y2="22.9486"/><line style="fill:none;stroke:#303030;stroke-width:0.3;stroke-linecap:round;stroke-linejoin:round;stroke-miterlimit:10;" x1="10.17889" x2="13.63503" y1="26.53968" y2="26.53968"/><line style="fill:none;stroke:#303030;stroke-width:0.3;stroke-linecap:round;stroke-linejoin:round;stroke-miterlimit:10;" x1="10.17889" x2="13.63503" y1="30.13076" y2="30.13076"/><line style="fill:none;stroke:#303030;stroke-width:0.3;stroke-linecap:round;stroke-linejoin:round;stroke-miterlimit:10;" x1="16.91815" x2="15.19177" y1="25.7643" y2="25.7643"/><line style="fill:none;stroke:#303030;stroke-width:0.3;stroke-linecap:round;stroke-linejoin:round;stroke-miterlimit:10;" x1="16.91815" x2="16.05496" y1="26.43645" y2="26.43645"/><line style="fill:none;stroke:#303030;stroke-width:0.3;stroke-linecap:round;stroke-linejoin:round;stroke-miterlimit:10;" x1="13.63503" x2="15.52037" y1="28.33486" y2="28.33486"/><line style="fill:none;stroke:#303030;stroke-width:0.3;stroke-linecap:round;stroke-linejoin:round;stroke-miterlimit:10;" x1="13.63503" x2="15.02746" y1="28.88656" y2="28.88656"/><line style="fill:none;stroke:#303030;stroke-width:0.3;stroke-linecap:round;stroke-linejoin:round;stroke-miterlimit:10;" x1="12.46311" x2="15.37603" y1="36.76859" y2="33.96279"/><line style="fill:none;stroke:#303030;stroke-width:0.4;stroke-linecap:round;stroke-linejoin:round;stroke-miterlimit:10;" x1="21.2011" x2="22.84035" y1="34.09424" y2="34.09424"/><line style="fill:none;stroke:#303030;stroke-width:0.4;stroke-linecap:round;stroke-linejoin:round;stroke-miterlimit:10;" x1="24.89765" x2="25.95032" y1="34.25687" y2="35.15653"/><polyline points="17.63579,31.1771 17.63579,27.5688 19.09868,27.5688 19.09868,31.1771   " style="fill:none;stroke:#303030;stroke-width:0.4;stroke-linecap:round;stroke-linejoin:round;stroke-miterlimit:10;"/><line style="fill:none;stroke:#303030;stroke-width:0.4;stroke-linecap:round;stroke-linejoin:round;stroke-miterlimit:10;" x1="10.59432" x2="10.77199" y1="39.36696" y2="39.51597"/><line style="fill:none;stroke:#303030;stroke-width:0.4;stroke-linecap:round;stroke-linejoin:round;stroke-miterlimit:10;" x1="12.20875" x2="12.20875" y1="38.79383" y2="38.99443"/><line style="fill:none;stroke:#303030;stroke-width:0.4;stroke-linecap:round;stroke-linejoin:round;stroke-miterlimit:10;" x1="13.15046" x2="13.47141" y1="39.76815" y2="39.72803"/></g></g></svg>