<?xml version="1.0" ?><svg style="enable-background:new 0 0 48 48;" version="1.1" viewBox="0 0 48 48" xml:space="preserve" xmlns="http://www.w3.org/2000/svg" xmlns:xlink="http://www.w3.org/1999/xlink"><g id="Padding__x26__Artboard"/><g id="Icons"><g><path d="M24.95271,7.21914c-1.59619,0-2.89502,1.29883-2.89502,2.89551    c0,1.59619,1.29883,2.89502,2.89502,2.89502s2.89502-1.29883,2.89502-2.89502C27.84773,8.51797,26.5489,7.21914,24.95271,7.21914z     M23.63197,10.56546c-0.28235,0-0.51129-0.22894-0.51129-0.51129c0-0.28241,0.22894-0.51135,0.51129-0.51135    c0.28241,0,0.51135,0.22894,0.51135,0.51135C24.14332,10.33651,23.91438,10.56546,23.63197,10.56546z M24.98945,11.92288    c-0.28235,0-0.51129-0.22888-0.51129-0.51129c0-0.28235,0.22894-0.51129,0.51129-0.51129    c0.28241,0,0.51129,0.22894,0.51129,0.51129C25.50074,11.694,25.27186,11.92288,24.98945,11.92288z M24.98945,9.20797    c-0.28235,0-0.51129-0.22894-0.51129-0.51129c0-0.28241,0.22894-0.51129,0.51129-0.51129    c0.28241,0,0.51129,0.22888,0.51129,0.51129C25.50074,8.97903,25.27186,9.20797,24.98945,9.20797z M26.34693,10.56546    c-0.28241,0-0.51129-0.22894-0.51129-0.51129c0-0.28241,0.22888-0.51135,0.51129-0.51135    c0.28235,0,0.51129,0.22894,0.51129,0.51135C26.85822,10.33651,26.62928,10.56546,26.34693,10.56546z" style="fill:#303030;"/><path d="M23.53327,36.04141c0.36523,0.31055,0.89844,0.48877,1.46289,0.48877    c0.5708,0,1.10498-0.18018,1.4624-0.4917c0.30127-0.25488,0.46729-0.58447,0.46729-0.92822    c0-0.61328-0.50635-1.13818-1.2915-1.33789c-0.28516-0.07178-0.59326-0.09326-0.87207-0.06836    c-0.13818,0.01075-0.27588,0.03613-0.40137,0.06836c-0.77246,0.19287-1.29102,0.73096-1.29102,1.33789    C23.06989,35.45352,23.23396,35.7836,23.53327,36.04141z" style="fill:none;"/><path d="M22.86451,36.56723c-0.05078-0.0127-0.10535-0.0199-0.16187-0.0199    c-0.02008,0-0.04022,0.00092-0.0603,0.00269c-0.03448,0.00275-0.06897,0.00903-0.10059,0.01721    c-0.17719,0.04437-0.3045,0.16205-0.3045,0.29962c0,0.07605,0.03827,0.14575,0.10242,0.20099    c0.08624,0.0733,0.21643,0.11945,0.36298,0.11945s0.27771-0.04614,0.36298-0.12036    c0.06415-0.05432,0.10339-0.12402,0.10339-0.20007C23.16902,36.72927,23.04261,36.61245,22.86451,36.56723z" style="fill:none;"/><path d="M24.99732,33.17538c0.14655,0,0.27777-0.0462,0.36298-0.12042    c0.06415-0.05432,0.10339-0.12402,0.10339-0.20001c0-0.13763-0.1264-0.25439-0.3045-0.29968    c-0.05078-0.01263-0.10535-0.0199-0.16187-0.0199c-0.02008,0-0.04022,0.00092-0.0603,0.00275    c-0.03448,0.00269-0.06897,0.00903-0.10059,0.01715c-0.17712,0.04437-0.3045,0.16205-0.3045,0.29968    c0,0.07599,0.03827,0.14569,0.10248,0.20093C24.72059,33.12918,24.85084,33.17538,24.99732,33.17538z" style="fill:none;"/><path d="M22.70265,33.89254c0.14655,0,0.27771-0.0462,0.36298-0.12042    c0.06415-0.05432,0.10339-0.12402,0.10339-0.20007c0-0.13757-0.1264-0.25433-0.3045-0.29962    c-0.05078-0.0127-0.10535-0.0199-0.16187-0.0199c-0.02008,0-0.04022,0.00092-0.0603,0.00269    c-0.03448,0.00275-0.06897,0.00909-0.10059,0.01721c-0.17719,0.04437-0.3045,0.16205-0.3045,0.29962    c0,0.07605,0.03827,0.14575,0.10242,0.20099C22.42591,33.84634,22.5561,33.89254,22.70265,33.89254z" style="fill:none;"/><path d="M25.46369,37.39364c0-0.13757-0.1264-0.25433-0.3045-0.29962    c-0.05078-0.01263-0.10535-0.0199-0.16187-0.0199c-0.02008,0-0.04022,0.00092-0.0603,0.00275    c-0.03448,0.00269-0.06897,0.00903-0.10059,0.01715c-0.17712,0.04437-0.3045,0.16205-0.3045,0.29962    c0,0.07086,0.03577,0.13513,0.09222,0.18835l0.74597-0.00018C25.42707,37.52926,25.46369,37.46476,25.46369,37.39364z" style="fill:none;"/><path d="M27.24226,33.89254c0.14648,0,0.27771-0.0462,0.36292-0.12042    c0.06421-0.05432,0.10345-0.12402,0.10345-0.20007c0-0.13757-0.1264-0.25433-0.30457-0.29962    c-0.05072-0.0127-0.10529-0.0199-0.1618-0.0199c-0.02014,0-0.04022,0.00092-0.06036,0.00269    c-0.03448,0.00275-0.06891,0.00909-0.10052,0.01721c-0.17719,0.04437-0.30457,0.16205-0.30457,0.29962    c0,0.07605,0.03833,0.14575,0.10248,0.20099C26.96546,33.84634,27.09571,33.89254,27.24226,33.89254z" style="fill:none;"/><polygon points="22.2425,39.74832 22.24629,39.75039 22.24702,39.75039   " style="fill:#303030;"/><polygon points="22.24702,39.75039 22.24629,39.75039 22.25208,39.75271   " style="fill:#303030;"/><path d="M22.2425,39.74832c-0.11224-0.05292-0.21344-0.11615-0.31946-0.17505    C22.02522,39.63369,22.1302,39.69241,22.2425,39.74832z" style="fill:#303030;"/><path d="M24.98933,40.35c-1.00781,0-1.94171-0.22424-2.73724-0.59729    C22.95277,40.09988,23.84809,40.35,24.98933,40.35z" style="fill:#303030;"/><path d="M25.63435,33.77237c-0.28516-0.07178-0.59326-0.09326-0.87207-0.06836    c-0.13818,0.01075-0.27588,0.03613-0.40137,0.06836c-0.77246,0.19287-1.29102,0.73096-1.29102,1.33789    c0,0.34326,0.16406,0.67334,0.46338,0.93115c0.36523,0.31055,0.89844,0.48877,1.46289,0.48877    c0.5708,0,1.10498-0.18018,1.4624-0.4917c0.30127-0.25488,0.46729-0.58447,0.46729-0.92822    C26.92585,34.49697,26.4195,33.97207,25.63435,33.77237z" style="fill:none;"/><path d="M22.86451,36.56723c-0.05078-0.0127-0.10535-0.0199-0.16187-0.0199    c-0.02008,0-0.04022,0.00092-0.0603,0.00269c-0.03448,0.00275-0.06897,0.00903-0.10059,0.01721    c-0.17719,0.04437-0.3045,0.16205-0.3045,0.29962c0,0.07605,0.03827,0.14575,0.10242,0.20099    c0.08624,0.0733,0.21643,0.11945,0.36298,0.11945s0.27771-0.04614,0.36298-0.12036    c0.06415-0.05432,0.10339-0.12402,0.10339-0.20007C23.16902,36.72927,23.04261,36.61245,22.86451,36.56723z" style="fill:none;"/><path d="M24.99732,33.17538c0.14655,0,0.27777-0.0462,0.36298-0.12042    c0.06415-0.05432,0.10339-0.12402,0.10339-0.20001c0-0.13763-0.1264-0.25439-0.3045-0.29968    c-0.05078-0.01263-0.10535-0.0199-0.16187-0.0199c-0.02008,0-0.04022,0.00092-0.0603,0.00275    c-0.03448,0.00269-0.06897,0.00903-0.10059,0.01715c-0.17712,0.04437-0.3045,0.16205-0.3045,0.29968    c0,0.07599,0.03827,0.14569,0.10248,0.20093C24.72059,33.12918,24.85084,33.17538,24.99732,33.17538z" style="fill:none;"/><path d="M22.70265,33.89254c0.14655,0,0.27771-0.0462,0.36298-0.12042    c0.06415-0.05432,0.10339-0.12402,0.10339-0.20007c0-0.13757-0.1264-0.25433-0.3045-0.29962    c-0.05078-0.0127-0.10535-0.0199-0.16187-0.0199c-0.02008,0-0.04022,0.00092-0.0603,0.00269    c-0.03448,0.00275-0.06897,0.00909-0.10059,0.01721c-0.17719,0.04437-0.3045,0.16205-0.3045,0.29962    c0,0.07605,0.03827,0.14575,0.10242,0.20099C22.42591,33.84634,22.5561,33.89254,22.70265,33.89254z" style="fill:none;"/><path d="M27.40406,33.27243c-0.05072-0.0127-0.10529-0.0199-0.1618-0.0199    c-0.02014,0-0.04022,0.00092-0.06036,0.00269c-0.03448,0.00275-0.06891,0.00909-0.10052,0.01721    c-0.17719,0.04437-0.30457,0.16205-0.30457,0.29962c0,0.07605,0.03833,0.14575,0.10248,0.20099    c0.08618,0.0733,0.21643,0.11951,0.36298,0.11951c0.14648,0,0.27771-0.0462,0.36292-0.12042    c0.06421-0.05432,0.10345-0.12402,0.10345-0.20007C27.70863,33.43447,27.58222,33.31771,27.40406,33.27243z" style="fill:none;"/><path d="M19.83039,35.10574c-0.00146-0.0025-0.00281-0.00488-0.00421-0.00739    c0,0.00305-0.00092,0.00592-0.00092,0.00897c0,0.00732,0.00238,0.01428,0.00244,0.02161v-0.01672    C19.82771,35.10965,19.83033,35.10824,19.83039,35.10574z" style="fill:#303030;"/><path d="M21.93269,34.8124c-0.05078-0.01263-0.10535-0.0199-0.16187-0.0199    c-0.02008,0-0.04016,0.00092-0.0603,0.00269c-0.03448,0.00275-0.06897,0.00909-0.10052,0.01721    c-0.17719,0.04437-0.30457,0.16205-0.30457,0.29962c0,0.07605,0.03833,0.14575,0.10248,0.20099    c0.08618,0.0733,0.21643,0.11951,0.36292,0.11951c0.14655,0,0.27777-0.0462,0.36298-0.12042    c0.06415-0.05432,0.10345-0.12402,0.10345-0.20007C22.23725,34.97445,22.11079,34.85769,21.93269,34.8124z" style="fill:none;"/><path d="M22.70265,33.89254c0.14655,0,0.27771-0.0462,0.36298-0.12042    c0.06415-0.05432,0.10339-0.12402,0.10339-0.20007c0-0.13757-0.1264-0.25433-0.3045-0.29962    c-0.05078-0.0127-0.10535-0.0199-0.16187-0.0199c-0.02008,0-0.04022,0.00092-0.0603,0.00269    c-0.03448,0.00275-0.06897,0.00909-0.10059,0.01721c-0.17719,0.04437-0.3045,0.16205-0.3045,0.29962    c0,0.07605,0.03827,0.14575,0.10242,0.20099C22.42591,33.84634,22.5561,33.89254,22.70265,33.89254z" style="fill:none;"/><path d="M24.99732,33.17538c0.14655,0,0.27777-0.0462,0.36298-0.12042    c0.06415-0.05432,0.10339-0.12402,0.10339-0.20001c0-0.13763-0.1264-0.25439-0.3045-0.29968    c-0.05078-0.01263-0.10535-0.0199-0.16187-0.0199c-0.02008,0-0.04022,0.00092-0.0603,0.00275    c-0.03448,0.00269-0.06897,0.00903-0.10059,0.01715c-0.17712,0.04437-0.3045,0.16205-0.3045,0.29968    c0,0.07599,0.03827,0.14569,0.10248,0.20093C24.72059,33.12918,24.85084,33.17538,24.99732,33.17538z" style="fill:none;"/><path d="M21.93269,34.8124c-0.05078-0.01263-0.10535-0.0199-0.16187-0.0199    c-0.02008,0-0.04016,0.00092-0.0603,0.00269c-0.03448,0.00275-0.06897,0.00909-0.10052,0.01721    c-0.17719,0.04437-0.30457,0.16205-0.30457,0.29962c0,0.07605,0.03833,0.14575,0.10248,0.20099    c0.08618,0.0733,0.21643,0.11951,0.36292,0.11951c0.14655,0,0.27777-0.0462,0.36298-0.12042    c0.06415-0.05432,0.10345-0.12402,0.10345-0.20007C22.23725,34.97445,22.11079,34.85769,21.93269,34.8124z" style="fill:none;"/><path d="M27.24226,33.89254c0.14648,0,0.27771-0.0462,0.36292-0.12042    c0.06421-0.05432,0.10345-0.12402,0.10345-0.20007c0-0.13757-0.1264-0.25433-0.30457-0.29962    c-0.05072-0.0127-0.10529-0.0199-0.1618-0.0199c-0.02014,0-0.04022,0.00092-0.06036,0.00269    c-0.03448,0.00275-0.06891,0.00909-0.10052,0.01721c-0.17719,0.04437-0.30457,0.16205-0.30457,0.29962    c0,0.07605,0.03833,0.14575,0.10248,0.20099C26.96546,33.84634,27.09571,33.89254,27.24226,33.89254z" style="fill:none;"/><path d="M25.63435,33.77237c-0.28516-0.07178-0.59326-0.09326-0.87207-0.06836    c-0.13818,0.01075-0.27588,0.03613-0.40137,0.06836c-0.77246,0.19287-1.29102,0.73096-1.29102,1.33789    c0,0.34326,0.16406,0.67334,0.46338,0.93115c0.36523,0.31055,0.89844,0.48877,1.46289,0.48877    c0.5708,0,1.10498-0.18018,1.4624-0.4917c0.30127-0.25488,0.46729-0.58447,0.46729-0.92822    C26.92585,34.49697,26.4195,33.97207,25.63435,33.77237z" style="fill:none;"/><path d="M22.86451,36.56723c-0.05078-0.0127-0.10535-0.0199-0.16187-0.0199    c-0.02008,0-0.04022,0.00092-0.0603,0.00269c-0.03448,0.00275-0.06897,0.00903-0.10059,0.01721    c-0.17719,0.04437-0.3045,0.16205-0.3045,0.29962c0,0.07605,0.03827,0.14575,0.10242,0.20099    c0.08624,0.0733,0.21643,0.11945,0.36298,0.11945s0.27771-0.04614,0.36298-0.12036    c0.06415-0.05432,0.10339-0.12402,0.10339-0.20007C23.16902,36.72927,23.04261,36.61245,22.86451,36.56723z" style="fill:none;"/><path d="M27.81111,35.31301c0.08618,0.0733,0.21643,0.11951,0.36292,0.11951    c0.14655,0,0.27777-0.0462,0.36298-0.12042c0.06415-0.05432,0.10339-0.12402,0.10339-0.20007    c0-0.13757-0.1264-0.25433-0.3045-0.29962c-0.05078-0.01263-0.10535-0.0199-0.16187-0.0199    c-0.02008,0-0.04022,0.00092-0.0603,0.00269c-0.03448,0.00275-0.06897,0.00909-0.10059,0.01721    c-0.17712,0.04437-0.3045,0.16205-0.3045,0.29962C27.70863,35.18808,27.7469,35.25778,27.81111,35.31301z" style="fill:none;"/><path d="M29.63728,36.81607l0.02649-0.09833c-0.02203,0.03516-0.04492,0.06989-0.06842,0.10455    L29.63728,36.81607z" style="fill:#303030;"/><g><g><path d="M22.29499,16.46768c-0.05664-0.07617-0.146-0.12109-0.24072-0.12109h-5.46094      c-0.09619,0-0.18652,0.0459-0.24316,0.12354c-0.05615,0.07812-0.07178,0.17822-0.04199,0.26953      c0.05371,0.16406,0.13721,0.37994,0.20795,0.55762h0.49762h0.14948h4.32904h0.16309h0.48267      c0.07043-0.17938,0.15308-0.39801,0.20337-0.56396C22.36872,16.64248,22.35163,16.54385,22.29499,16.46768z" style="fill:#303030;"/><path d="M29.96101,10.4667c-0.08643-2.76221-2.4165-4.92432-5.16504-4.85205      c-2.76172,0.08643-4.93799,2.40381-4.85205,5.16553c0.04199,1.33789,0.60254,2.57959,1.57812,3.49561      c0.61279,0.57544,1.34943,0.95947,2.13934,1.16998c-0.13031,0.81799-0.51288,2.40655-1.21552,2.84711      c-0.11328,0.07129-0.16602,0.20898-0.12891,0.3374c0.03662,0.12842,0.1543,0.2168,0.28809,0.2168h0.3999h0.59961h2.77051      h0.59961h0.40039c0.13379,0,0.25098-0.08838,0.28809-0.2168s-0.01514-0.26562-0.12842-0.33691      c-0.70728-0.44513-1.09314-2.03894-1.22498-2.86267C28.4709,14.81918,30.03437,12.81033,29.96101,10.4667z M24.95271,13.60928      c-1.92725,0-3.49463-1.56738-3.49463-3.49463s1.56738-3.49512,3.49463-3.49512s3.49463,1.56787,3.49463,3.49512      S26.87995,13.60928,24.95271,13.60928z" style="fill:#303030;"/></g><g><polygon points="30.45722,37.92868 30.4665,37.93472 30.46913,37.92868     " style="fill:#303030;"/><g><polygon points="19.51325,37.92868 19.51588,37.93478 19.52528,37.92868      " style="fill:#303030;"/><g><path d="M33.54499,39.74746h-1.13037c-0.52954-0.69128-1.18817-1.29333-1.94812-1.81274        c-0.00696,0.01691-0.09912,0.23199-0.30115,0.54474c-0.22803,0.35291-0.59741,0.82422-1.14984,1.27094        c-0.26172,0.21155-0.56244,0.41656-0.91022,0.59961c-0.78949,0.41559-1.81067,0.71729-3.11597,0.71729        s-2.32611-0.3017-3.11511-0.71729c-0.34753-0.18304-0.64813-0.38806-0.90955-0.59961        c-0.55194-0.44672-0.92065-0.91797-1.14825-1.27087c-0.2016-0.31256-0.29358-0.52765-0.30054-0.54474        c-0.76001,0.51752-1.41974,1.11938-1.95087,1.81268h-1.12988c-0.16553,0-0.2998,0.13428-0.2998,0.2998v0.55707v0.67755        v0.80542c0,0.16553,0.13428,0.2998,0.2998,0.2998h17.10986c0.16553,0,0.2998-0.13428,0.2998-0.2998v-2.04004        C33.8448,39.88174,33.71052,39.74746,33.54499,39.74746z" style="fill:#303030;"/><path d="M29.66377,36.71774l-0.02649,0.09833l-0.04193,0.00623        c-0.03845,0.05682-0.06989,0.11615-0.11224,0.17157c-0.14697,0.1922-0.31635,0.37555-0.50793,0.54706        c-0.01587,0.01459-0.03589,0.02557-0.05206,0.03992c-0.14117,0.125-0.29169,0.24182-0.45386,0.34784        c-0.19055,0.12457-0.39215,0.23865-0.60132,0.34442c-0.04462,0.02258-0.09174,0.04181-0.13727,0.06323        c-0.81085,0.38232-1.7478,0.61084-2.74573,0.61084c-1.30273,0-2.52008-0.37671-3.46667-1.01849        c-0.16418-0.11133-0.33356-0.21771-0.47925-0.34564c-0.01361-0.01196-0.03137-0.02026-0.0448-0.03235        c-0.1875-0.17078-0.35199-0.35089-0.49548-0.53809c-0.43719-0.57043-0.66608-1.21088-0.67102-1.88367v1.3822        c0,0.37463,0.09515,0.72961,0.23029,1.07214c0,0,0.02911,0.06799,0.08508,0.17438        c0.02551,0.0578,0.0545,0.11444,0.0835,0.17102c0.03326,0.06482,0.05627,0.13336,0.0957,0.19617        c0.36359,0.57892,0.92004,1.07031,1.60077,1.44843c0.10602,0.0589,0.20721,0.12213,0.31946,0.17505        c0.0014,0.00073,0.00311,0.00134,0.00452,0.00208c0.00165,0.00079,0.00348,0.00146,0.00507,0.00232        c0.79553,0.37305,1.72943,0.59729,2.73724,0.59729c1.20721,0,2.12921-0.2511,2.83514-0.59961        c0.94403-0.46606,1.49493-1.1059,1.79193-1.57159c0.01257-0.01923,0.02954-0.03638,0.04175-0.05579        c0.01202-0.0191,0.01776-0.04041,0.02911-0.05975c0.02844-0.04822,0.05304-0.09198,0.07568-0.13458        c0.11145-0.20935,0.15936-0.34814,0.15936-0.34814c0.13446-0.34174,0.22913-0.6958,0.22913-1.0694v-1.37469        C30.1457,35.68698,29.97218,36.22488,29.66377,36.71774z" style="fill:#303030;"/></g><path d="M29.24677,32.96304c-0.55225-0.60266-1.33209-1.08942-2.27209-1.38074V19.51705h-0.59961       h-2.77051h-0.59961v1.50043h-2.38458c0.54156-0.63745,0.86853-1.26239,1.0423-1.70703       c0.12531-0.32019,0.24683-0.98932,0.31598-1.41357h-0.3233H21.37h-4.0863h-0.26996h-0.33862       c0.06793,0.42596,0.18854,1.09772,0.31909,1.41748c0.29126,0.71582,0.62207,1.18182,1.11133,1.70801h-0.18311       c-0.16553,0-0.2998,0.13428-0.2998,0.2998s0.13428,0.2998,0.2998,0.2998h0.4715l0.00604,5.35693       c-0.61816,0.08691-0.87549,0.24463-0.87549,0.52295c0,0.15363,0.01978,0.54248,1.53021,0.58746       c0.04364,0.63391,0.0614,2.46466-0.99994,4.13568c-0.2998,0.47217-0.76123,1.03564-1.25,1.63135       c-1.40234,1.71191-2.99268,3.65234-2.58447,5.396c0.19318,0.82672,0.84747,1.50488,1.91504,2.02954v-0.67755       c-0.7439-0.41626-1.19379-0.90302-1.33106-1.48871c-0.34033-1.45557,1.21484-3.35352,2.46484-4.87891       c0.5-0.61035,0.97266-1.18701,1.29248-1.69043c1.13879-1.7934,1.14417-3.71247,1.09515-4.45746       c1.49365-0.04645,1.51373-0.39398,1.51373-0.56891c0-0.31006-0.32178-0.44141-0.82861-0.51367l-0.00653-5.38916h2.66962       v9.96448c-0.96124,0.29456-1.76025,0.79358-2.31696,1.41461c-0.26892,0.30005-0.42725,0.67627-0.45728,1.078       c-0.01648,0.22113-0.01978,0.4906,0.01239,0.78595c0.02789,0.25562,0.08588,0.52686,0.1842,0.80725       c0.10992,0.3136,0.28119,0.62775,0.51923,0.93402c0.0542,0.07373,0.11969,0.14349,0.18225,0.21466       c0.08594,0.09778,0.16681,0.19739,0.26825,0.28979c0.1983,0.17853,0.4248,0.33411,0.66345,0.47687       c0.22516,0.13464,0.47064,0.24548,0.72498,0.34595c0.66711,0.26367,1.41315,0.41888,2.19946,0.41888       c0.78235,0,1.51569-0.15845,2.17297-0.41888c0.05121-0.02026,0.10541-0.03638,0.15564-0.05792l-0.11975-0.28949       l-0.38025-0.91925c-0.04688-0.11377-0.01953-0.24512,0.06934-0.33057c0.08936-0.08594,0.22217-0.10742,0.33252-0.05713       l1.48895,0.68079c0.42133-0.34412,0.68073-0.74866,0.84747-1.15601c0.13495-0.32965,0.20917-0.65961,0.2392-0.96173       c0.01239-0.12439,0.01849-0.24316,0.02014-0.35437C29.81947,33.92514,29.62373,33.37436,29.24677,32.96304z M26.06745,35.5834       c-0.50342,0.43945-1.62793,0.44141-2.14404,0.00195c-0.11572-0.09961-0.25391-0.2627-0.25391-0.4751       c0-0.32178,0.34424-0.63281,0.83838-0.75635c0.09473-0.02393,0.19727-0.04346,0.3042-0.05176       c0.06152-0.00537,0.12256-0.00879,0.18408-0.00879c0.16602,0,0.33154,0.02051,0.4917,0.06055       c0.50146,0.12744,0.83838,0.43164,0.83838,0.75635C26.32624,35.32071,26.18757,35.48184,26.06745,35.5834z M24.93702,32.53811       c0.02008-0.00183,0.04022-0.00275,0.0603-0.00275c0.05652,0,0.11108,0.00726,0.16187,0.0199       c0.1781,0.04529,0.3045,0.16205,0.3045,0.29968c0,0.07599-0.03925,0.14569-0.10339,0.20001       c-0.08521,0.07422-0.21643,0.12042-0.36298,0.12042c-0.14648,0-0.27673-0.0462-0.36292-0.11951       c-0.06421-0.05524-0.10248-0.12494-0.10248-0.20093c0-0.13763,0.12738-0.25531,0.3045-0.29968       C24.86805,32.54715,24.90254,32.5408,24.93702,32.53811z M24.05525,28.58877c0-0.16553,0.13428-0.2998,0.2998-0.2998       s0.2998,0.13428,0.2998,0.2998v2.71777c-0.10797,0.00507-0.21759-0.00824-0.32471,0.00195       c-0.08905,0.00745-0.18427,0.03754-0.2749,0.04956V28.58877z M22.54176,33.27243       c0.03162-0.00812,0.0661-0.01447,0.10059-0.01721c0.02008-0.00177,0.04022-0.00269,0.0603-0.00269       c0.05652,0,0.11108,0.0072,0.16187,0.0199c0.1781,0.04529,0.3045,0.16205,0.3045,0.29962       c0,0.07605-0.03925,0.14575-0.10339,0.20007c-0.08527,0.07422-0.21643,0.12042-0.36298,0.12042       s-0.27673-0.0462-0.36298-0.11951c-0.06415-0.05524-0.10242-0.12494-0.10242-0.20099       C22.23725,33.43447,22.36457,33.3168,22.54176,33.27243z M21.77082,35.43252c-0.14648,0-0.27673-0.0462-0.36292-0.11951       c-0.06415-0.05524-0.10248-0.12494-0.10248-0.20099c0-0.13757,0.12738-0.25525,0.30457-0.29962       c0.03156-0.00812,0.06604-0.01447,0.10052-0.01721c0.02014-0.00177,0.04022-0.00269,0.0603-0.00269       c0.05652,0,0.11108,0.00726,0.16187,0.0199c0.1781,0.04529,0.30457,0.16205,0.30457,0.29962       c0,0.07605-0.03931,0.14575-0.10345,0.20007C22.04859,35.38632,21.91737,35.43252,21.77082,35.43252z M23.06562,37.06692       c-0.08527,0.07422-0.21643,0.12036-0.36298,0.12036s-0.27673-0.04614-0.36298-0.11945       c-0.06415-0.05524-0.10242-0.12494-0.10242-0.20099c0-0.13757,0.12732-0.25525,0.3045-0.29962       c0.03162-0.00818,0.0661-0.01447,0.10059-0.01721c0.02008-0.00177,0.04022-0.00269,0.0603-0.00269       c0.05652,0,0.11108,0.0072,0.16187,0.0199c0.1781,0.04523,0.3045,0.16205,0.3045,0.29962       C23.16902,36.9429,23.12977,37.0126,23.06562,37.06692z M25.37013,37.58181c-0.00397,0.00366-0.00568,0.00836-0.00983,0.0119       c-0.08521,0.07422-0.21643,0.12042-0.36298,0.12042c-0.14648,0-0.27673-0.0462-0.36292-0.11951       c-0.00439-0.00378-0.0061-0.00873-0.01025-0.01263c-0.05646-0.05322-0.09222-0.11749-0.09222-0.18835       c0-0.13757,0.12738-0.25525,0.3045-0.29962c0.03162-0.00812,0.0661-0.01447,0.10059-0.01715       c0.02008-0.00183,0.04022-0.00275,0.0603-0.00275c0.05652,0,0.11108,0.00726,0.16187,0.0199       c0.1781,0.04529,0.3045,0.16205,0.3045,0.29962C25.46369,37.46476,25.42707,37.52926,25.37013,37.58181z M27.24226,33.89254       c-0.14655,0-0.27679-0.0462-0.36298-0.11951c-0.06415-0.05524-0.10248-0.12494-0.10248-0.20099       c0-0.13757,0.12738-0.25525,0.30457-0.29962c0.03162-0.00812,0.06604-0.01447,0.10052-0.01721       c0.02014-0.00177,0.04022-0.00269,0.06036-0.00269c0.05652,0,0.11108,0.0072,0.1618,0.0199       c0.17816,0.04529,0.30457,0.16205,0.30457,0.29962c0,0.07605-0.03925,0.14575-0.10345,0.20007       C27.51997,33.84634,27.38874,33.89254,27.24226,33.89254z M28.537,35.3121c-0.08521,0.07422-0.21643,0.12042-0.36298,0.12042       c-0.14648,0-0.27673-0.0462-0.36292-0.11951c-0.06421-0.05524-0.10248-0.12494-0.10248-0.20099       c0-0.13757,0.12738-0.25525,0.3045-0.29962c0.03162-0.00812,0.0661-0.01447,0.10059-0.01721       c0.02008-0.00177,0.04022-0.00269,0.0603-0.00269c0.05652,0,0.11108,0.00726,0.16187,0.0199       c0.1781,0.04529,0.3045,0.16205,0.3045,0.29962C28.64039,35.18808,28.60114,35.25778,28.537,35.3121z" style="fill:#303030;"/></g></g></g></g></g></svg>