<?xml version="1.0" ?><!DOCTYPE svg  PUBLIC '-//W3C//DTD SVG 1.1//EN'  'http://www.w3.org/Graphics/SVG/1.1/DTD/svg11.dtd'><svg height="43.3492mm" style="shape-rendering:geometricPrecision; text-rendering:geometricPrecision; image-rendering:optimizeQuality; fill-rule:evenodd; clip-rule:evenodd" version="1.1" viewBox="0 0 4335 4335" width="43.3492mm" xml:space="preserve" xmlns="http://www.w3.org/2000/svg" xmlns:xlink="http://www.w3.org/1999/xlink"><defs><style type="text/css">
   <![CDATA[
    .fil0 {fill:#211D21}
   ]]>
  </style></defs><g id="Layer_x0020_1"><path class="fil0" d="M711 2183c0,-666 470,-1269 1140,-1428 1382,-328 2428,1401 1365,2464 -111,111 -277,238 -429,299 -591,238 -1191,153 -1642,-299 -123,-123 -223,-258 -297,-431 -80,-189 -138,-378 -138,-605zm-401 -104c0,481 37,652 252,1054 271,504 926,920 1514,920 416,0 525,-10 910,-174 58,-25 94,-52 144,-79 50,-27 90,-53 136,-87 184,-135 417,-369 527,-572 30,-55 56,-90 79,-144 245,-555 239,-1068 4,-1622 -75,-178 -238,-385 -372,-519 -80,-80 -138,-131 -230,-200 -45,-33 -84,-60 -135,-88 -55,-30 -90,-56 -144,-79 -867,-383 -1784,-151 -2342,598 -191,257 -346,657 -346,991z"/><path class="fil0" d="M2325 3269c27,-116 32,-442 32,-591 64,-34 102,-57 160,-96 174,92 352,179 527,272 -18,67 -78,102 -124,148 -130,131 -391,267 -595,267zm-1023 -415l543 -272c35,24 32,29 75,53 31,18 57,28 85,43 0,196 32,390 32,591 -288,0 -620,-243 -735,-415zm639 -671c0,-320 479,-320 479,0 0,320 -479,320 -479,0zm751 -96l511 -336c49,210 80,185 80,463 0,181 -48,263 -80,399l-511 -336c13,-55 30,-124 0,-192zm-1039 80l16 112c-55,15 -85,47 -131,77l-380 243c-107,-222 -107,-609 0,-831 83,56 166,105 252,163 46,31 82,50 128,80 46,29 76,62 131,77 -8,36 -16,37 -16,80zm352 -479l-160 96 -543 -272c115,-172 447,-415 735,-415 0,201 -32,395 -32,591zm320 -591c198,0 460,133 588,259 47,47 113,88 132,156 -175,93 -353,180 -527,272 -58,-39 -95,-62 -160,-96 0,-94 -13,-549 -32,-591zm-1550 1039c0,260 32,423 128,639 473,1062 2044,1101 2551,11 252,-542 141,-1178 -278,-1597 -920,-920 -2401,-175 -2401,947z"/><path class="fil0" d="M618 2183c0,-708 500,-1350 1212,-1519 1469,-348 2581,1490 1452,2620 -119,119 -295,253 -456,318 -628,253 -1266,162 -1746,-318 -131,-131 -237,-275 -315,-458 -85,-201 -146,-402 -146,-643zm-426 -111c0,511 39,694 268,1121 288,536 984,979 1610,979 442,0 558,-11 968,-185 62,-26 100,-55 153,-84 53,-28 96,-56 145,-92 196,-144 444,-392 560,-608 32,-59 59,-96 84,-153 260,-590 254,-1136 5,-1725 -80,-189 -253,-409 -395,-552 -85,-85 -147,-139 -245,-213 -48,-36 -89,-64 -143,-94 -59,-32 -96,-59 -153,-84 -922,-407 -1897,-161 -2490,636 -203,273 -367,699 -367,1053z"/><g id="_506435720"><g><g><path class="fil0" d="M2133 104l0 -1 7 1 7 -1 0 1 165 16 0 220 -172 -118 -172 118 0 -220 165 -16zm0 4155l0 1 7 -1 7 1 0 -1 165 -16 0 -220 -172 118 -172 -118 0 220 165 16z"/><path class="fil0" d="M106 2188l-1 0 1 -7 -1 -7 1 0 16 -165 220 0 -118 172 118 172 -220 0 -16 -165zm4155 0l1 0 -1 -7 1 -7 -1 0 -16 -165 -220 0 118 172 -118 172 220 0 16 -165z"/></g><g><path class="fil0" d="M679 747l-1 -1 5 -4 4 -5 1 1 128 -105 156 156 -205 38 -38 205 -156 -156 105 -128zm2938 2938l1 1 4 -5 5 -4 -1 -1 105 -128 -156 -156 -38 205 -205 38 156 156 128 -105z"/><path class="fil0" d="M719 3655l-1 1 -4 -5 -5 -4 1 -1 -105 -128 156 -156 38 205 205 38 -156 156 -128 -105zm2938 -2938l1 -1 -5 -4 -4 -5 -1 1 -128 -105 -156 156 205 38 38 205 156 -156 -105 -128z"/></g></g><g><g><path class="fil0" d="M1342 281l-1 -1 7 -2 6 -3 1 1 158 -49 84 203 -204 -43 -113 175 -84 -203 146 -77zm1590 3838l1 1 6 -3 7 -2 -1 -1 146 -77 -84 -203 -113 175 -204 -43 84 203 158 -49z"/><path class="fil0" d="M266 2982l-1 1 -2 -7 -3 -6 1 -1 -49 -158 203 -84 -43 204 175 113 -203 84 -77 -146zm3839 -1590l1 -1 -3 -6 -2 -7 -1 1 -77 -146 -203 84 175 113 -43 204 203 -84 -49 -158z"/></g><g><path class="fil0" d="M245 1432l-1 -1 3 -6 2 -7 1 1 78 -146 203 84 -175 113 43 204 -203 -84 49 -158zm3838 1590l1 1 2 -7 3 -6 -1 -1 49 -158 -203 -84 43 204 -175 113 203 84 77 -146z"/><path class="fil0" d="M1394 4103l-1 1 -6 -3 -7 -2 1 -1 -146 -77 84 -203 113 175 204 -43 -84 203 -158 -49zm1590 -3839l1 -1 -7 -2 -6 -3 -1 1 -158 -49 -84 203 204 -43 113 175 84 -203 -146 -77z"/></g></g></g><g id="_506622864"><g><g><path class="fil0" d="M2536 133l0 -1 7 2 7 1 0 1 159 47 -43 216 -146 -149 -191 83 43 -216 165 17zm-804 4076l0 1 7 1 7 2 0 -1 165 17 43 -216 -191 83 -146 -149 -43 216 159 47z"/><path class="fil0" d="M144 1786l-1 0 2 -7 1 -7 1 0 47 -159 216 43 -149 146 83 191 -216 -43 17 -165zm4076 804l1 0 1 -7 2 -7 -1 0 17 -165 -216 -43 83 191 -149 146 216 43 47 -159z"/></g><g><path class="fil0" d="M985 483l-1 -1 6 -3 5 -4 1 1 146 -79 122 183 -208 -3 -77 194 -122 -183 128 -105zm2314 3451l1 1 5 -4 6 -3 -1 -1 128 -105 -122 -183 -77 194 -208 -3 122 183 146 -79z"/><path class="fil0" d="M461 3343l-1 1 -3 -6 -4 -5 1 -1 -79 -146 183 -122 -3 208 194 77 -183 122 -105 -128zm3451 -2314l1 -1 -4 -5 -3 -6 -1 1 -105 -128 -183 122 194 77 -3 208 183 -122 -79 -146z"/></g></g><g><g><path class="fil0" d="M1725 154l0 -1 7 -1 7 -2 0 1 165 -17 43 216 -192 -82 -145 150 -43 -216 158 -48zm817 4074l0 1 7 -2 7 -1 0 -1 158 -48 -43 -216 -145 150 -192 -82 43 216 165 -17z"/><path class="fil0" d="M148 2596l-1 0 -1 -7 -2 -7 1 0 -17 -165 216 -43 -82 192 150 145 -216 43 -48 -158zm4074 -817l1 0 -2 -7 -1 -7 -1 0 -48 -158 -216 43 150 145 -82 192 216 -43 -17 -165z"/></g><g><path class="fil0" d="M426 1071l-1 -1 4 -5 3 -6 1 1 104 -128 183 122 -193 77 3 208 -183 -122 78 -146zm3458 2303l1 1 3 -6 4 -5 -1 -1 78 -146 -183 -122 3 208 -193 77 183 122 104 -128z"/><path class="fil0" d="M1037 3914l-1 1 -5 -4 -6 -3 1 -1 -128 -104 122 -183 77 193 208 -3 -122 183 -146 -78zm2303 -3458l1 -1 -6 -3 -5 -4 -1 1 -146 -78 -122 183 208 -3 77 193 122 -183 -128 -104z"/></g></g></g></g></svg>