<?xml version="1.0" ?><!DOCTYPE svg  PUBLIC '-//W3C//DTD SVG 1.1//EN'  'http://www.w3.org/Graphics/SVG/1.1/DTD/svg11.dtd'><svg height="30" version="1.1" viewBox="0 0 30 30" width="30" xml:space="preserve" xmlns="http://www.w3.org/2000/svg" xmlns:xlink="http://www.w3.org/1999/xlink"><g transform="translate(-210 -200)"><g id="tow-truck_2_" xmlns="http://www.w3.org/2000/svg" xmlns:xlink="http://www.w3.org/1999/xlink"><g><path d="M239,221v-4l-6-1l-2-5h-7v6h-10v4h-1v2h3c0-0.352,0.072-0.686,0.184-1c0.414-1.162,1.513-2,2.816-2     c1.305,0,2.403,0.838,2.816,2c0.111,0.314,0.184,0.648,0.184,1h10c0-0.352,0.072-0.686,0.184-1c0.414-1.162,1.513-2,2.816-2     c1.305,0,2.403,0.838,2.816,2c0.111,0.314,0.184,0.648,0.184,1h2v-2H239z M226,216v-4h4.323l1.6,4H226z"/><polygon points="226,212 226,216 231.923,216 230.323,212    " style="opacity:0.25;"/></g><circle cx="219" cy="223" r="2"/><circle cx="235" cy="223" r="2"/><g style="opacity:0.75;"><path d="M215.147,210.439l8.853,4.604v-1.128l-10.021-5.211c-0.07,0.508-0.391,0.932-0.836,1.145l7.149,7.15h1.414     L215.147,210.439z"/></g><g><path d="M212.5,207c-0.828,0-1.5,0.672-1.5,1.5s0.672,1.5,1.5,1.5s1.5-0.672,1.5-1.5S213.328,207,212.5,207z M212.5,209     c-0.276,0-0.5-0.224-0.5-0.5s0.224-0.5,0.5-0.5s0.5,0.224,0.5,0.5S212.776,209,212.5,209z"/></g><g style="opacity:0.75;"><path d="M214,214v1h-2.241l1.201-2.803c0.026-0.063,0.04-0.129,0.04-0.197v-2.092c-0.157,0.056-0.323,0.092-0.5,0.092     c-0.176,0-0.343-0.036-0.5-0.092v1.99l-1.459,3.404c-0.066,0.154-0.051,0.332,0.042,0.473S210.832,216,211,216h3.5     c0.276,0,0.5-0.224,0.5-0.5V214H214z"/></g></g></g></svg>